<svg width="16" height="862" viewBox="0 0 16 862" fill="none" xmlns="http://www.w3.org/2000/svg">
<path d="M8 3.33333C6.52724 3.33333 5.33333 4.52724 5.33333 6C5.33333 7.47276 6.52724 8.66667 8 8.66667C9.47276 8.66667 10.6667 7.47276 10.6667 6C10.6667 4.52724 9.47276 3.33333 8 3.33333ZM7.64641 861.354C7.84167 861.549 8.15825 861.549 8.35352 861.354L11.5355 858.172C11.7308 857.976 11.7308 857.66 11.5355 857.464C11.3402 857.269 11.0237 857.269 10.8284 857.464L7.99996 860.293L5.17154 857.464C4.97627 857.269 4.65969 857.269 4.46443 857.464C4.26917 857.66 4.26917 857.976 4.46443 858.172L7.64641 861.354ZM7.5 6L7.5 10.9709L8.5 10.9709L8.5 6L7.5 6ZM7.5 20.9128L7.5 30.8547L8.5 30.8547L8.5 20.9128L7.5 20.9128ZM7.5 40.7965L7.5 50.7384L8.5 50.7384L8.5 40.7965L7.5 40.7965ZM7.5 60.6802L7.5 70.6221L8.5 70.6221L8.5 60.6802L7.5 60.6802ZM7.5 80.564L7.5 90.5058L8.5 90.5058L8.5 80.564L7.5 80.564ZM7.5 100.448L7.5 110.39L8.5 110.39L8.5 100.448L7.5 100.448ZM7.5 120.331L7.49999 130.273L8.49999 130.273L8.5 120.331L7.5 120.331ZM7.49999 140.215L7.49999 150.157L8.49999 150.157L8.49999 140.215L7.49999 140.215ZM7.49999 160.099L7.49999 170.041L8.49999 170.041L8.49999 160.099L7.49999 160.099ZM7.49999 179.983L7.49999 189.924L8.49999 189.924L8.49999 179.983L7.49999 179.983ZM7.49999 199.866L7.49999 209.808L8.49999 209.808L8.49999 199.866L7.49999 199.866ZM7.49999 219.75L7.49999 229.692L8.49999 229.692L8.49999 219.75L7.49999 219.75ZM7.49999 239.634L7.49999 249.576L8.49999 249.576L8.49999 239.634L7.49999 239.634ZM7.49999 259.518L7.49999 269.459L8.49999 269.459L8.49999 259.518L7.49999 259.518ZM7.49999 279.401L7.49999 289.343L8.49999 289.343L8.49999 279.401L7.49999 279.401ZM7.49999 299.285L7.49999 309.227L8.49999 309.227L8.49999 299.285L7.49999 299.285ZM7.49999 319.169L7.49999 329.111L8.49999 329.111L8.49999 319.169L7.49999 319.169ZM7.49999 339.052L7.49999 348.994L8.49999 348.994L8.49999 339.052L7.49999 339.052ZM7.49998 358.936L7.49998 368.878L8.49998 368.878L8.49998 358.936L7.49998 358.936ZM7.49998 378.82L7.49998 388.762L8.49998 388.762L8.49998 378.82L7.49998 378.82ZM7.49998 398.704L7.49998 408.645L8.49998 408.645L8.49998 398.704L7.49998 398.704ZM7.49998 418.587L7.49998 428.529L8.49998 428.529L8.49998 418.587L7.49998 418.587ZM7.49998 438.471L7.49998 448.413L8.49998 448.413L8.49998 438.471L7.49998 438.471ZM7.49998 458.355L7.49998 468.297L8.49998 468.297L8.49998 458.355L7.49998 458.355ZM7.49998 478.238L7.49998 488.18L8.49998 488.18L8.49998 478.238L7.49998 478.238ZM7.49998 498.122L7.49998 508.064L8.49998 508.064L8.49998 498.122L7.49998 498.122ZM7.49998 518.006L7.49998 527.948L8.49998 527.948L8.49998 518.006L7.49998 518.006ZM7.49998 537.89L7.49998 547.831L8.49998 547.831L8.49998 537.89L7.49998 537.89ZM7.49998 557.773L7.49998 567.715L8.49998 567.715L8.49998 557.773L7.49998 557.773ZM7.49998 577.657L7.49997 587.599L8.49997 587.599L8.49998 577.657L7.49998 577.657ZM7.49997 597.541L7.49997 607.482L8.49997 607.482L8.49997 597.541L7.49997 597.541ZM7.49997 617.424L7.49997 627.366L8.49997 627.366L8.49997 617.424L7.49997 617.424ZM7.49997 637.308L7.49997 647.25L8.49997 647.25L8.49997 637.308L7.49997 637.308ZM7.49997 657.192L7.49997 667.133L8.49997 667.133L8.49997 657.192L7.49997 657.192ZM7.49997 677.075L7.49997 687.017L8.49997 687.017L8.49997 677.075L7.49997 677.075ZM7.49997 696.959L7.49997 706.901L8.49997 706.901L8.49997 696.959L7.49997 696.959ZM7.49997 716.843L7.49997 726.784L8.49997 726.784L8.49997 716.843L7.49997 716.843ZM7.49997 736.726L7.49997 746.668L8.49997 746.668L8.49997 736.726L7.49997 736.726ZM7.49997 756.61L7.49997 766.552L8.49997 766.552L8.49997 756.61L7.49997 756.61ZM7.49997 776.494L7.49997 786.435L8.49997 786.435L8.49997 776.494L7.49997 776.494ZM7.49997 796.377L7.49997 806.319L8.49997 806.319L8.49997 796.377L7.49997 796.377ZM7.49996 816.261L7.49996 826.203L8.49996 826.203L8.49996 816.261L7.49996 816.261ZM7.49996 836.145L7.49996 846.086L8.49996 846.086L8.49996 836.145L7.49996 836.145ZM7.49996 856.028L7.49996 861L8.49996 861L8.49996 856.028L7.49996 856.028ZM8 0.666667C5.05448 0.666667 2.66667 3.05448 2.66667 6C2.66667 8.94552 5.05448 11.3333 8 11.3333C10.9455 11.3333 13.3333 8.94552 13.3333 6C13.3333 3.05448 10.9455 0.666667 8 0.666667ZM7.29286 861.707C7.68338 862.098 8.31655 862.098 8.70707 861.707L15.071 855.343C15.4616 854.953 15.4616 854.319 15.071 853.929C14.6805 853.538 14.0473 853.538 13.6568 853.929L7.99996 859.586L2.34311 853.929C1.95258 853.538 1.31942 853.538 0.928895 853.929C0.538371 854.319 0.538371 854.953 0.928895 855.343L7.29286 861.707ZM7 6L7 10.9709L9 10.9709L9 6L7 6ZM7 20.9128L7 30.8547L9 30.8547L9 20.9128L7 20.9128ZM7 40.7965L7 50.7384L9 50.7384L9 40.7965L7 40.7965ZM7 60.6802L7 70.6221L9 70.6221L9 60.6802L7 60.6802ZM7 80.564L7 90.5058L9 90.5058L9 80.564L7 80.564ZM7 100.448L7 110.39L9 110.39L9 100.448L7 100.448ZM7 120.331L6.99999 130.273L8.99999 130.273L9 120.331L7 120.331ZM6.99999 140.215L6.99999 150.157L8.99999 150.157L8.99999 140.215L6.99999 140.215ZM6.99999 160.099L6.99999 170.041L8.99999 170.041L8.99999 160.099L6.99999 160.099ZM6.99999 179.983L6.99999 189.924L8.99999 189.924L8.99999 179.983L6.99999 179.983ZM6.99999 199.866L6.99999 209.808L8.99999 209.808L8.99999 199.866L6.99999 199.866ZM6.99999 219.75L6.99999 229.692L8.99999 229.692L8.99999 219.75L6.99999 219.75ZM6.99999 239.634L6.99999 249.576L8.99999 249.576L8.99999 239.634L6.99999 239.634ZM6.99999 259.518L6.99999 269.459L8.99999 269.459L8.99999 259.518L6.99999 259.518ZM6.99999 279.401L6.99999 289.343L8.99999 289.343L8.99999 279.401L6.99999 279.401ZM6.99999 299.285L6.99999 309.227L8.99999 309.227L8.99999 299.285L6.99999 299.285ZM6.99999 319.169L6.99999 329.111L8.99999 329.111L8.99999 319.169L6.99999 319.169ZM6.99999 339.052L6.99999 348.994L8.99999 348.994L8.99999 339.052L6.99999 339.052ZM6.99998 358.936L6.99998 368.878L8.99998 368.878L8.99998 358.936L6.99998 358.936ZM6.99998 378.82L6.99998 388.762L8.99998 388.762L8.99998 378.82L6.99998 378.82ZM6.99998 398.704L6.99998 408.645L8.99998 408.645L8.99998 398.704L6.99998 398.704ZM6.99998 418.587L6.99998 428.529L8.99998 428.529L8.99998 418.587L6.99998 418.587ZM6.99998 438.471L6.99998 448.413L8.99998 448.413L8.99998 438.471L6.99998 438.471ZM6.99998 458.355L6.99998 468.297L8.99998 468.297L8.99998 458.355L6.99998 458.355ZM6.99998 478.238L6.99998 488.18L8.99998 488.18L8.99998 478.238L6.99998 478.238ZM6.99998 498.122L6.99998 508.064L8.99998 508.064L8.99998 498.122L6.99998 498.122ZM6.99998 518.006L6.99998 527.948L8.99998 527.948L8.99998 518.006L6.99998 518.006ZM6.99998 537.89L6.99998 547.831L8.99998 547.831L8.99998 537.89L6.99998 537.89ZM6.99998 557.773L6.99998 567.715L8.99998 567.715L8.99998 557.773L6.99998 557.773ZM6.99998 577.657L6.99997 587.599L8.99997 587.599L8.99998 577.657L6.99998 577.657ZM6.99997 597.541L6.99997 607.482L8.99997 607.482L8.99997 597.541L6.99997 597.541ZM6.99997 617.424L6.99997 627.366L8.99997 627.366L8.99997 617.424L6.99997 617.424ZM6.99997 637.308L6.99997 647.25L8.99997 647.25L8.99997 637.308L6.99997 637.308ZM6.99997 657.192L6.99997 667.133L8.99997 667.133L8.99997 657.192L6.99997 657.192ZM6.99997 677.075L6.99997 687.017L8.99997 687.017L8.99997 677.075L6.99997 677.075ZM6.99997 696.959L6.99997 706.901L8.99997 706.901L8.99997 696.959L6.99997 696.959ZM6.99997 716.843L6.99997 726.784L8.99997 726.784L8.99997 716.843L6.99997 716.843ZM6.99997 736.726L6.99997 746.668L8.99997 746.668L8.99997 736.726L6.99997 736.726ZM6.99997 756.61L6.99997 766.552L8.99997 766.552L8.99997 756.61L6.99997 756.61ZM6.99997 776.494L6.99997 786.435L8.99997 786.435L8.99997 776.494L6.99997 776.494ZM6.99997 796.377L6.99997 806.319L8.99997 806.319L8.99997 796.377L6.99997 796.377ZM6.99996 816.261L6.99996 826.203L8.99996 826.203L8.99996 816.261L6.99996 816.261ZM6.99996 836.145L6.99996 846.086L8.99996 846.086L8.99996 836.145L6.99996 836.145ZM6.99996 856.028L6.99996 861L8.99996 861L8.99996 856.028L6.99996 856.028Z" fill="#E6E6E6"/>
</svg>
