<svg width="342" height="342" viewBox="0 0 342 342" fill="none" xmlns="http://www.w3.org/2000/svg">
<path fill-rule="evenodd" clip-rule="evenodd" d="M241.985 105.913H259.673V147.241H241.985V182.666H224.298V200.379H206.611V212.187H224.298V253.516H200.715V218.091H183.028V200.379H171.236H159.445V218.091H141.757V253.516H118.174V212.187H135.862V200.379H118.174V182.666H100.487V147.241H82.7998V105.913H100.487V88.2002H129.966V117.721H112.279V141.337H118.174V123.625H135.862V111.817H171.236H206.611V123.625H224.298V141.337H230.194V117.721H212.506V88.2002H241.985V105.913ZM159.445 170.858H135.862V147.241H159.445V170.858ZM183.028 170.858H206.611V147.241H183.028V170.858Z" fill="white"/>
<circle cx="171" cy="171" r="155" stroke="#999999" stroke-width="2"/>
<circle cx="171" cy="171" r="170" stroke="#999999" stroke-width="2"/>
</svg>
