<svg width="1202" height="418" viewBox="0 0 1202 418" fill="none" xmlns="http://www.w3.org/2000/svg">
<circle cx="601" cy="226" r="191" stroke="#E6E6E6" stroke-width="2" stroke-dasharray="10 10"/>
<path fill-rule="evenodd" clip-rule="evenodd" d="M671.985 160.913H689.673V202.241H671.985V237.666H654.298V255.379H636.611V267.187H654.298V308.516H630.715V273.091H613.028V255.379H601.236H589.445V273.091H571.757V308.516H548.174V267.187H565.862V255.379H548.174V237.666H530.487V202.241H512.8V160.913H530.487V143.2H559.966V172.721H542.279V196.337H548.174V178.625H565.862V166.817H601.236H636.611V178.625H654.298V196.337H660.194V172.721H642.506V143.2H671.985V160.913ZM589.445 225.858H565.862V202.241H589.445V225.858ZM613.028 225.858H636.611V202.241H613.028V225.858Z" fill="white"/>
<path d="M817.393 233.71C816.447 232.581 816.597 230.899 817.726 229.954C818.855 229.009 820.537 229.158 821.482 230.287C822.428 231.417 822.278 233.099 821.149 234.044C820.02 234.989 818.338 234.84 817.393 233.71ZM1059.94 231.999L1059.94 231.499L1059.94 231.999ZM1086.94 224.499L1087.29 224.852L1086.94 224.499ZM1095.44 198.499L1095.94 198.488L1095.94 198.499L1095.44 198.499ZM1095.44 198.499L1094.94 198.51L1094.94 198.499L1095.44 198.499ZM1095.08 0.646257C1095.28 0.450999 1095.6 0.451011 1095.79 0.646268L1098.97 3.82825C1099.17 4.02352 1099.17 4.3401 1098.97 4.53537C1098.78 4.73063 1098.46 4.73063 1098.27 4.53536L1095.44 1.70693L1092.61 4.53533C1092.41 4.73059 1092.1 4.7306 1091.9 4.53533C1091.71 4.34006 1091.71 4.02348 1091.9 3.82823L1095.08 0.646257ZM819.438 231.499L824.448 231.499L824.448 232.499L819.438 232.499L819.438 231.499ZM834.469 231.499L844.49 231.499L844.49 232.499L834.469 232.499L834.469 231.499ZM854.511 231.499L864.531 231.499L864.531 232.499L854.511 232.499L854.511 231.499ZM874.552 231.499L884.573 231.499L884.573 232.499L874.552 232.499L874.552 231.499ZM894.594 231.499L904.615 231.499L904.615 232.499L894.594 232.499L894.594 231.499ZM914.636 231.499L924.657 231.499L924.657 232.499L914.636 232.499L914.636 231.499ZM934.677 231.499L944.698 231.499L944.698 232.499L934.677 232.499L934.677 231.499ZM954.719 231.499L964.74 231.499L964.74 232.499L954.719 232.499L954.719 231.499ZM974.761 231.499L984.782 231.499L984.782 232.499L974.761 232.499L974.761 231.499ZM994.803 231.499L1004.82 231.499L1004.82 232.499L994.803 232.499L994.803 231.499ZM1014.84 231.499L1024.87 231.499L1024.87 232.499L1014.84 232.499L1014.84 231.499ZM1034.89 231.499L1044.91 231.499L1044.91 232.499L1034.89 232.499L1034.89 231.499ZM1054.93 231.499L1059.94 231.499L1059.94 232.499L1054.93 232.499L1054.93 231.499ZM1059.94 231.499C1062.04 231.499 1064.48 231.587 1067.15 231.489L1067.18 232.488C1064.5 232.587 1061.99 232.499 1059.94 232.499L1059.94 231.499ZM1080.9 228.315C1082.88 227.285 1084.8 225.929 1086.58 224.145L1087.29 224.852C1085.43 226.712 1083.43 228.128 1081.36 229.202L1080.9 228.315ZM1086.58 224.145C1088.38 222.351 1089.79 220.538 1090.89 218.717L1091.74 219.235C1090.6 221.128 1089.14 223.004 1087.29 224.852L1086.58 224.145ZM1094.77 205.522C1094.94 203.166 1094.94 200.825 1094.94 198.499L1095.94 198.499C1095.94 200.819 1095.94 203.197 1095.76 205.595L1094.77 205.522ZM1094.94 198.511L1094.94 198.51L1095.94 198.488L1095.94 198.488L1094.94 198.511ZM1094.94 198.51L1094.94 198.51L1095.94 198.488L1095.94 198.488L1094.94 198.51ZM1094.94 198.499C1094.94 197.859 1094.94 196.197 1094.94 193.669L1095.94 193.669C1095.94 196.197 1095.94 197.859 1095.94 198.499L1094.94 198.499ZM1094.94 183.747C1094.94 180.807 1094.94 177.502 1094.94 173.888L1095.94 173.888C1095.94 177.502 1095.94 180.807 1095.94 183.747L1094.94 183.747ZM1094.94 163.941C1094.94 160.805 1094.94 157.519 1094.94 154.109L1095.94 154.109C1095.94 157.519 1095.94 160.805 1095.94 163.941L1094.94 163.941ZM1094.94 144.229C1094.94 141.005 1094.94 137.701 1094.94 134.337L1095.94 134.337C1095.94 137.701 1095.94 141.005 1095.94 144.229L1094.94 144.229ZM1094.94 124.446C1094.94 121.184 1094.94 117.885 1094.94 114.562L1095.94 114.562C1095.94 117.885 1095.94 121.184 1095.94 124.446L1094.94 124.446ZM1094.94 104.688C1094.94 101.397 1094.94 98.0985 1094.94 94.8079L1095.94 94.8079C1095.94 98.0985 1095.94 101.397 1095.94 104.688L1094.94 104.688ZM1094.94 84.9245C1094.94 81.6011 1094.94 78.3007 1094.94 75.039L1095.94 75.039C1095.94 78.3007 1095.94 81.6011 1095.94 84.9245L1094.94 84.9245ZM1094.94 65.1544C1094.94 61.795 1094.94 58.4968 1094.94 55.2783L1095.94 55.2783C1095.94 58.4968 1095.94 61.795 1095.94 65.1544L1094.94 65.1544ZM1094.94 45.4287C1094.94 41.9844 1094.94 38.6681 1094.94 35.5071L1095.94 35.5071C1095.94 38.6681 1095.94 41.9844 1095.94 45.4287L1094.94 45.4287ZM1094.94 25.6348C1094.94 21.9931 1094.94 18.6681 1094.94 15.7206L1095.94 15.7206C1095.94 18.6681 1095.94 21.9931 1095.94 25.6348L1094.94 25.6348ZM1094.94 5.9069C1094.94 4.32584 1094.94 3.09906 1094.94 2.26756C1094.94 1.85182 1094.94 1.53488 1094.94 1.32187C1094.94 1.21539 1094.94 1.13486 1094.94 1.08098C1094.94 1.05403 1094.94 1.03373 1094.94 1.02018C1094.94 1.01343 1094.94 1.00831 1094.94 1.00492C1094.94 1.00328 1094.94 1.0019 1094.94 1.0011C1094.94 1.00063 1094.94 1.0004 1094.94 1.00015C1094.94 1.00005 1094.94 0.999941 1094.94 0.99991C1094.94 0.999867 1094.94 0.999855 1094.94 0.999836C1094.94 0.999824 1094.94 0.999824 1095.44 0.999824C1095.94 0.999823 1095.94 0.999835 1095.94 0.999835C1095.94 0.999866 1095.94 0.999878 1095.94 0.999909C1095.94 0.999933 1095.94 0.999964 1095.94 1.00001C1095.94 1.00005 1095.94 1.0001 1095.94 1.00015C1095.94 1.00031 1095.94 1.00072 1095.94 1.00111C1095.94 1.00198 1095.94 1.0032 1095.94 1.00493C1095.94 1.00833 1095.94 1.01343 1095.94 1.02019C1095.94 1.03374 1095.94 1.05404 1095.94 1.08099C1095.94 1.13487 1095.94 1.21538 1095.94 1.32188C1095.94 1.53488 1095.94 1.8518 1095.94 2.26756C1095.94 3.09907 1095.94 4.32585 1095.94 5.90689L1094.94 5.9069ZM815.348 235.422C813.457 233.163 813.756 229.8 816.014 227.909C818.273 226.019 821.637 226.317 823.527 228.576C825.418 230.835 825.119 234.198 822.861 236.089C820.602 237.979 817.238 237.681 815.348 235.422ZM1059.94 231.999L1059.94 230.999L1059.94 230.999L1059.94 231.999ZM1086.94 224.499L1087.65 225.206L1086.94 224.499ZM1095.44 198.499L1096.44 198.477L1096.44 198.488L1096.44 198.499L1095.44 198.499ZM1095.44 198.499L1094.44 198.521L1094.44 198.51L1094.44 198.499L1095.44 198.499ZM1094.73 0.292722C1095.12 -0.0978135 1095.75 -0.0978128 1096.14 0.292713L1102.51 6.65671C1102.9 7.04724 1102.9 7.68039 1102.51 8.07091C1102.12 8.46144 1101.48 8.46143 1101.09 8.0709L1095.44 2.41404L1089.78 8.07084C1089.39 8.46138 1088.76 8.46137 1088.37 8.07084C1087.98 7.68031 1087.98 7.04716 1088.37 6.65663L1094.73 0.292722ZM819.438 230.999L824.448 230.999L824.448 232.999L819.438 232.999L819.438 230.999ZM834.469 230.999L844.49 230.999L844.49 232.999L834.469 232.999L834.469 230.999ZM854.511 230.999L864.531 230.999L864.531 232.999L854.511 232.999L854.511 230.999ZM874.552 230.999L884.573 230.999L884.573 232.999L874.552 232.999L874.552 230.999ZM894.594 230.999L904.615 230.999L904.615 232.999L894.594 232.999L894.594 230.999ZM914.636 230.999L924.657 230.999L924.657 232.999L914.636 232.999L914.636 230.999ZM934.677 230.999L944.698 230.999L944.698 232.999L934.677 232.999L934.677 230.999ZM954.719 230.999L964.74 230.999L964.74 232.999L954.719 232.999L954.719 230.999ZM974.761 230.999L984.782 230.999L984.782 232.999L974.761 232.999L974.761 230.999ZM994.803 230.999L1004.82 230.999L1004.82 232.999L994.803 232.999L994.803 230.999ZM1014.84 230.999L1024.87 230.999L1024.87 232.999L1014.84 232.999L1014.84 230.999ZM1034.89 230.999L1044.91 230.999L1044.91 232.999L1034.89 232.999L1034.89 230.999ZM1054.93 230.999L1059.94 230.999L1059.94 232.999L1054.93 232.999L1054.93 230.999ZM1059.94 230.999C1062.06 230.999 1064.48 231.087 1067.13 230.989L1067.2 232.988C1064.5 233.087 1061.97 232.999 1059.94 232.999L1059.94 230.999ZM1080.67 227.871C1082.61 226.864 1084.48 225.538 1086.23 223.792L1087.65 225.206C1085.75 227.104 1083.7 228.549 1081.59 229.646L1080.67 227.871ZM1086.23 223.792C1088 222.025 1089.38 220.244 1090.46 218.458L1092.17 219.494C1091 221.423 1089.52 223.33 1087.65 225.206L1086.23 223.792ZM1094.27 205.486C1094.44 203.151 1094.44 200.828 1094.44 198.5L1096.44 198.499C1096.44 200.816 1096.44 203.212 1096.26 205.631L1094.27 205.486ZM1094.44 198.522L1094.44 198.521L1096.44 198.477L1096.44 198.477L1094.44 198.522ZM1094.44 198.521L1094.44 198.521L1096.44 198.477L1096.44 198.477L1094.44 198.521ZM1094.44 198.499C1094.44 197.859 1094.44 196.197 1094.44 193.669L1096.44 193.669C1096.44 196.197 1096.44 197.859 1096.44 198.499L1094.44 198.499ZM1094.44 183.747C1094.44 180.807 1094.44 177.502 1094.44 173.888L1096.44 173.888C1096.44 177.502 1096.44 180.807 1096.44 183.747L1094.44 183.747ZM1094.44 163.941C1094.44 160.805 1094.44 157.519 1094.44 154.109L1096.44 154.109C1096.44 157.519 1096.44 160.805 1096.44 163.941L1094.44 163.941ZM1094.44 144.229C1094.44 141.005 1094.44 137.701 1094.44 134.337L1096.44 134.337C1096.44 137.701 1096.44 141.005 1096.44 144.229L1094.44 144.229ZM1094.44 124.446C1094.44 121.184 1094.44 117.885 1094.44 114.562L1096.44 114.562C1096.44 117.885 1096.44 121.184 1096.44 124.446L1094.44 124.446ZM1094.44 104.688C1094.44 101.397 1094.44 98.0985 1094.44 94.8079L1096.44 94.8079C1096.44 98.0985 1096.44 101.397 1096.44 104.688L1094.44 104.688ZM1094.44 84.9245C1094.44 81.6011 1094.44 78.3007 1094.44 75.039L1096.44 75.039C1096.44 78.3007 1096.44 81.6011 1096.44 84.9245L1094.44 84.9245ZM1094.44 65.1544C1094.44 61.795 1094.44 58.4968 1094.44 55.2783L1096.44 55.2783C1096.44 58.4968 1096.44 61.795 1096.44 65.1545L1094.44 65.1544ZM1094.44 45.4287C1094.44 41.9844 1094.44 38.6681 1094.44 35.5071L1096.44 35.5071C1096.44 38.6681 1096.44 41.9844 1096.44 45.4287L1094.44 45.4287ZM1094.44 25.6348C1094.44 21.9931 1094.44 18.6681 1094.44 15.7206L1096.44 15.7206C1096.44 18.6681 1096.44 21.9931 1096.44 25.6348L1094.44 25.6348ZM1094.44 5.9069C1094.44 4.32584 1094.44 3.09906 1094.44 2.26757C1094.44 1.85181 1094.44 1.53487 1094.44 1.32187C1094.44 1.21538 1094.44 1.13486 1094.44 1.08098C1094.44 1.05403 1094.44 1.03375 1094.44 1.0202C1094.44 1.01342 1094.44 1.00832 1094.44 1.00492C1094.44 1.00328 1094.44 1.0019 1094.44 1.00109C1094.44 1.00057 1094.44 1.00044 1094.44 1.00014C1094.44 1.00009 1094.44 1.00004 1094.44 0.999996C1094.44 0.999953 1094.44 0.999922 1094.44 0.999899C1094.44 0.999867 1094.44 0.999856 1094.44 0.999844C1094.44 0.999824 1094.44 0.999813 1095.44 0.999824C1096.44 0.999835 1096.44 0.999835 1096.44 0.999846C1096.44 0.999866 1096.44 0.999878 1096.44 0.999921C1096.44 0.999932 1096.44 0.999975 1096.44 1.00002C1096.44 1.00004 1096.44 1.00008 1096.44 1.00016C1096.44 1.00027 1096.44 1.00078 1096.44 1.00111C1096.44 1.00199 1096.44 1.0032 1096.44 1.00493C1096.44 1.00831 1096.44 1.01343 1096.44 1.02019C1096.44 1.03374 1096.44 1.05404 1096.44 1.08099C1096.44 1.13487 1096.44 1.21538 1096.44 1.32188C1096.44 1.53489 1096.44 1.85181 1096.44 2.26757C1096.44 3.09907 1096.44 4.32585 1096.44 5.90689L1094.44 5.9069Z" fill="#999999"/>
<path d="M384.832 233.16C385.774 232.028 385.621 230.347 384.489 229.404C383.358 228.462 381.676 228.615 380.734 229.747C379.791 230.878 379.944 232.56 381.076 233.502C382.208 234.445 383.889 234.292 384.832 233.16ZM142.302 231.996L142.301 231.496L142.302 231.996ZM115.286 224.558L114.933 224.912L115.286 224.558ZM106.724 198.581L106.224 198.576L106.224 198.582L106.724 198.581ZM106.724 198.58L107.224 198.585L107.224 198.579L106.724 198.58ZM106.596 0.749416C106.401 0.55464 106.084 0.555394 105.889 0.75114L102.715 3.94087C102.52 4.1366 102.521 4.45319 102.717 4.64797C102.912 4.84275 103.229 4.84198 103.424 4.64625L106.245 1.81093L109.081 4.63246C109.276 4.82723 109.593 4.82646 109.788 4.63073C109.983 4.43499 109.982 4.1184 109.786 3.92363L106.596 0.749416ZM382.782 230.953L377.772 230.965L377.774 231.965L382.784 231.953L382.782 230.953ZM367.752 230.987L357.732 231.01L357.734 232.01L367.754 231.987L367.752 230.987ZM347.712 231.032L337.692 231.055L337.694 232.055L347.714 232.032L347.712 231.032ZM327.671 231.078L317.651 231.1L317.654 232.1L327.674 232.078L327.671 231.078ZM307.631 231.123L297.611 231.146L297.614 232.146L307.634 232.123L307.631 231.123ZM287.591 231.168L277.571 231.191L277.574 232.191L287.594 232.168L287.591 231.168ZM267.551 231.213L257.531 231.236L257.534 232.236L267.554 232.213L267.551 231.213ZM247.511 231.259L237.491 231.281L237.493 232.281L247.514 232.259L247.511 231.259ZM227.471 231.304L217.451 231.327L217.453 232.327L227.473 232.304L227.471 231.304ZM207.431 231.349L197.411 231.372L197.413 232.372L207.433 232.349L207.431 231.349ZM187.391 231.394L177.371 231.417L177.373 232.417L187.393 232.394L187.391 231.394ZM167.351 231.44L157.331 231.462L157.333 232.462L167.353 232.44L167.351 231.44ZM147.311 231.485L142.301 231.496L142.303 232.496L147.313 232.485L147.311 231.485ZM142.301 231.496C140.199 231.501 137.757 231.594 135.094 231.502L135.059 232.502C137.745 232.595 140.25 232.501 142.303 232.496L142.301 231.496ZM121.331 228.36C119.348 227.334 117.427 225.983 115.639 224.203L114.933 224.912C116.798 226.768 118.803 228.178 120.872 229.248L121.331 228.36ZM115.639 224.203C113.84 222.414 112.43 220.604 111.323 218.786L110.469 219.306C111.62 221.196 113.08 223.068 114.933 224.912L115.639 224.203ZM107.413 205.601C107.235 203.246 107.23 200.905 107.224 198.579L106.224 198.582C106.23 200.901 106.235 203.279 106.416 205.676L107.413 205.601ZM107.224 198.586L107.224 198.586L106.224 198.575L106.224 198.576L107.224 198.586ZM107.224 198.585L107.224 198.585L106.224 198.575L106.224 198.575L107.224 198.585ZM107.224 198.579C107.223 197.939 107.219 196.277 107.213 193.75L106.213 193.752C106.219 196.279 106.223 197.942 106.224 198.581L107.224 198.579ZM107.189 183.828C107.181 180.889 107.173 177.584 107.165 173.971L106.165 173.974C106.173 177.587 106.181 180.892 106.189 183.831L107.189 183.828ZM107.14 164.024C107.133 160.889 107.125 157.604 107.117 154.194L106.117 154.196C106.125 157.606 106.133 160.892 106.14 164.027L107.14 164.024ZM107.093 144.315C107.085 141.091 107.077 137.788 107.068 134.424L106.068 134.427C106.077 137.79 106.085 141.094 106.093 144.317L107.093 144.315ZM107.044 124.535C107.036 121.273 107.028 117.974 107.02 114.652L106.02 114.654C106.028 117.976 106.036 121.276 106.044 124.537L107.044 124.535ZM106.996 104.778C106.988 101.488 106.98 98.1901 106.972 94.8998L105.972 94.9023C105.98 98.1925 105.988 101.49 105.996 104.781L106.996 104.778ZM106.948 85.0176C106.94 81.6945 106.932 78.3946 106.924 75.1332L105.924 75.1357C105.932 78.397 105.94 81.697 105.948 85.02L106.948 85.0176ZM106.9 65.2498C106.892 61.8907 106.884 58.5929 106.876 55.3748L105.876 55.3773C105.884 58.5953 105.892 61.8932 105.9 65.2523L106.9 65.2498ZM106.852 45.5263C106.843 42.0824 106.835 38.7665 106.828 35.6059L105.828 35.6083C105.835 38.7689 105.843 42.0848 105.852 45.5288L106.852 45.5263ZM106.804 25.7347C106.795 22.0934 106.787 18.7688 106.779 15.8217L105.779 15.8241C105.787 18.7712 105.795 22.0958 105.804 25.7372L106.804 25.7347ZM106.756 6.00906C106.752 4.42818 106.749 3.20158 106.747 2.37019C106.746 1.95449 106.745 1.6376 106.744 1.42462C106.744 1.31816 106.744 1.23763 106.744 1.18375C106.744 1.15681 106.744 1.13654 106.744 1.12299C106.744 1.11621 106.744 1.11111 106.744 1.10771C106.744 1.10599 106.744 1.10475 106.744 1.10389C106.744 1.10346 106.744 1.10317 106.744 1.10293C106.744 1.10288 106.744 1.10283 106.744 1.10279C106.744 1.10274 106.744 1.10271 106.744 1.10269C106.744 1.10266 106.744 1.10265 106.744 1.10263C106.744 1.10261 106.744 1.1026 106.244 1.10383C105.744 1.10506 105.744 1.10506 105.744 1.10507C105.744 1.10509 105.744 1.1051 105.744 1.10514C105.744 1.10528 105.744 1.10515 105.744 1.10538C105.744 1.10566 105.744 1.10583 105.744 1.10633C105.744 1.10719 105.744 1.10844 105.744 1.11015C105.744 1.11353 105.744 1.11865 105.744 1.12541C105.744 1.13896 105.744 1.15926 105.744 1.1862C105.744 1.24008 105.744 1.32058 105.744 1.42707C105.745 1.64004 105.746 1.95693 105.747 2.37263C105.749 3.20402 105.752 4.43064 105.756 6.01148L106.756 6.00906ZM386.881 234.867C388.766 232.604 388.459 229.241 386.196 227.355C383.933 225.47 380.57 225.777 378.685 228.04C376.8 230.303 377.106 233.666 379.369 235.551C381.633 237.436 384.995 237.13 386.881 234.867ZM142.302 231.996L142.3 230.996L142.302 231.996ZM115.286 224.558L114.581 225.267L115.286 224.558ZM106.724 198.581L105.724 198.57L105.724 198.583L106.724 198.581ZM106.724 198.58L107.724 198.59L107.724 198.578L106.724 198.58ZM106.949 0.395001C106.557 0.00541804 105.924 0.00697033 105.535 0.39845L99.1863 6.7779C98.7968 7.16938 98.7983 7.80255 99.1898 8.1921C99.5812 8.58169 100.214 8.58014 100.604 8.18866L106.247 2.51804L111.918 8.16107C112.309 8.55063 112.942 8.54909 113.332 8.15762C113.721 7.76614 113.72 7.13297 113.328 6.74342L106.949 0.395001ZM382.781 230.453L377.77 230.465L377.775 232.465L382.785 232.453L382.781 230.453ZM367.75 230.487L357.73 230.51L357.735 232.51L367.755 232.487L367.75 230.487ZM347.71 230.532L337.69 230.555L337.695 232.555L347.715 232.532L347.71 230.532ZM327.67 230.578L317.65 230.6L317.655 232.6L327.675 232.578L327.67 230.578ZM307.63 230.623L297.61 230.646L297.615 232.646L307.635 232.623L307.63 230.623ZM287.59 230.668L277.57 230.691L277.575 232.691L287.595 232.668L287.59 230.668ZM267.55 230.713L257.53 230.736L257.535 232.736L267.555 232.713L267.55 230.713ZM247.51 230.759L237.49 230.781L237.495 232.781L247.515 232.759L247.51 230.759ZM227.47 230.804L217.45 230.827L217.455 232.827L227.475 232.804L227.47 230.804ZM207.43 230.849L197.41 230.872L197.414 232.872L207.435 232.849L207.43 230.849ZM187.39 230.894L177.37 230.917L177.374 232.917L187.394 232.894L187.39 230.894ZM167.35 230.94L157.33 230.962L157.334 232.962L167.354 232.94L167.35 230.94ZM147.31 230.985L142.3 230.996L142.304 232.996L147.314 232.985L147.31 230.985ZM142.3 230.996C140.174 231.001 137.763 231.094 135.111 231.003L135.042 233.002C137.739 233.095 140.275 233.001 142.304 232.996L142.3 230.996ZM121.561 227.916C119.621 226.912 117.742 225.591 115.991 223.849L114.581 225.267C116.483 227.16 118.53 228.6 120.643 229.692L121.561 227.916ZM115.991 223.849C114.22 222.086 112.835 220.309 111.75 218.526L110.042 219.566C111.214 221.492 112.701 223.396 114.581 225.267L115.991 223.849ZM107.911 205.563C107.736 203.23 107.73 200.906 107.724 198.578L105.724 198.583C105.73 200.9 105.735 203.295 105.917 205.714L107.911 205.563ZM107.724 198.591L107.724 198.591L105.724 198.57L105.724 198.57L107.724 198.591ZM107.724 198.59L107.724 198.59L105.724 198.57L105.724 198.57L107.724 198.59ZM107.724 198.578C107.723 197.938 107.719 196.276 107.713 193.748L105.713 193.753C105.719 196.281 105.723 197.943 105.724 198.582L107.724 198.578ZM107.689 183.827C107.681 180.888 107.673 177.583 107.665 173.97L105.665 173.975C105.673 177.588 105.681 180.893 105.689 183.832L107.689 183.827ZM107.64 164.023C107.633 160.888 107.625 157.603 107.617 154.193L105.617 154.197C105.625 157.608 105.633 160.893 105.641 164.028L107.64 164.023ZM107.593 144.314C107.585 141.09 107.577 137.787 107.568 134.423L105.568 134.428C105.577 137.792 105.585 141.095 105.593 144.319L107.593 144.314ZM107.544 124.533C107.536 121.272 107.528 117.973 107.52 114.651L105.52 114.656C105.528 117.978 105.536 121.277 105.544 124.538L107.544 124.533ZM107.496 104.777C107.488 101.487 107.48 98.1889 107.472 94.8986L105.472 94.9035C105.48 98.1937 105.488 101.491 105.496 104.782L107.496 104.777ZM107.448 85.0163C107.44 81.6933 107.432 78.3934 107.424 75.132L105.424 75.1369C105.432 78.3982 105.44 81.6982 105.448 85.0212L107.448 85.0163ZM107.4 65.2486C107.392 61.8895 107.384 58.5917 107.376 55.3736L105.376 55.3785C105.384 58.5965 105.392 61.8944 105.4 65.2535L107.4 65.2486ZM107.352 45.5251C107.343 42.0812 107.335 38.7653 107.328 35.6047L105.328 35.6095C105.335 38.7702 105.344 42.086 105.352 45.53L107.352 45.5251ZM107.304 25.7335C107.295 22.0922 107.287 18.7676 107.279 15.8204L105.279 15.8253C105.287 18.7725 105.295 22.097 105.304 25.7384L107.304 25.7335ZM107.256 6.00783C107.252 4.42699 107.249 3.20035 107.247 2.36896C107.246 1.95326 107.245 1.63637 107.244 1.4234C107.244 1.31693 107.244 1.23641 107.244 1.18254C107.244 1.15558 107.244 1.13532 107.244 1.12176C107.244 1.11498 107.244 1.10989 107.244 1.1065C107.244 1.10479 107.244 1.10352 107.244 1.10267C107.244 1.1022 107.244 1.10195 107.244 1.10171C107.244 1.10166 107.244 1.10161 107.244 1.10157C107.244 1.10153 107.244 1.1015 107.244 1.10147C107.244 1.10144 107.244 1.10143 107.244 1.10142C107.244 1.10139 107.244 1.10139 106.244 1.10383C105.244 1.10627 105.244 1.10628 105.244 1.10628C105.244 1.1063 105.244 1.10633 105.244 1.10634C105.244 1.10671 105.244 1.10619 105.244 1.10658C105.244 1.10685 105.244 1.10709 105.244 1.10755C105.244 1.10842 105.244 1.10966 105.244 1.11138C105.244 1.11474 105.244 1.11988 105.244 1.12664C105.244 1.14018 105.244 1.16049 105.244 1.18741C105.244 1.2413 105.244 1.3218 105.244 1.42828C105.245 1.64125 105.246 1.95816 105.247 2.37386C105.249 3.20524 105.252 4.43185 105.256 6.0127L107.256 6.00783Z" fill="#999999"/>
</svg>
