<svg width="30" height="30" viewBox="0 0 30 30" fill="none" xmlns="http://www.w3.org/2000/svg">
<path d="M29.0627 7.50249C29.0637 6.78003 28.8561 6.07265 28.4647 5.46541C28.0732 4.85817 27.5148 4.37691 26.8563 4.07952C26.1979 3.78213 25.4676 3.68126 24.7533 3.78904C24.0389 3.89681 23.3709 4.20865 22.8295 4.68706C22.5364 4.94559 22.2852 5.24802 22.0848 5.58354V5.58706C22.0531 5.63979 22.0232 5.6937 21.9939 5.7476L21.9799 5.77632C21.9553 5.8226 21.9324 5.86948 21.9102 5.91694C21.9031 5.93159 21.8967 5.94624 21.8902 5.96089C21.8709 6.00366 21.8521 6.04702 21.8346 6.09096C21.827 6.10913 21.8199 6.12729 21.8129 6.14546C21.7971 6.18647 21.7818 6.22749 21.7672 6.26909L21.7461 6.3312C21.7332 6.37104 21.7209 6.41147 21.7092 6.4519C21.7021 6.47475 21.6957 6.49702 21.6898 6.51987C21.6787 6.55913 21.6693 6.59897 21.66 6.63706C21.6541 6.66108 21.6482 6.6851 21.643 6.70913C21.6348 6.74897 21.6271 6.7894 21.6201 6.82632C21.6154 6.85093 21.6107 6.87553 21.6066 6.90014C21.6002 6.94116 21.5949 6.98276 21.5896 7.02436C21.5867 7.04839 21.5832 7.07241 21.5803 7.09702C21.5756 7.14214 21.5727 7.18725 21.5691 7.23296C21.5691 7.25405 21.5656 7.27514 21.5645 7.29624C21.5609 7.36303 21.5586 7.42983 21.5586 7.4978C21.5586 7.55639 21.5586 7.61499 21.5633 7.67007V7.70757C21.5664 7.76264 21.5705 7.81772 21.5756 7.8728L21.5791 7.90093C21.5844 7.95073 21.5902 7.99995 21.5979 8.04858C21.5979 8.05854 21.5979 8.06909 21.602 8.07905C21.6102 8.13237 21.6201 8.1851 21.6307 8.23784C21.6307 8.25073 21.6359 8.26303 21.6383 8.27592C21.6488 8.32632 21.6605 8.37671 21.6734 8.42651V8.43764C21.6869 8.48979 21.7016 8.54077 21.7174 8.59175L21.7297 8.63159C21.7455 8.68139 21.7619 8.73003 21.7795 8.77866C21.783 8.78921 21.7871 8.79975 21.7912 8.8103C21.807 8.8519 21.8234 8.8935 21.8404 8.93452C21.8451 8.94682 21.8498 8.95854 21.8551 8.97026C21.875 9.01655 21.8955 9.06284 21.9172 9.10854L21.9365 9.1478C21.957 9.18882 21.9775 9.22983 21.9992 9.27026C22.3051 9.83869 22.7518 10.3191 23.2965 10.6654C23.4395 10.7567 23.5887 10.838 23.743 10.9085L23.7658 10.9191C23.8697 10.966 23.9758 11.0082 24.084 11.0457L24.1396 11.0644L24.2275 11.0919C24.2539 11.1001 24.2803 11.1072 24.3072 11.1148L24.4197 11.1441L24.5211 11.1675L24.5885 11.181L24.6957 11.2003L24.7508 11.2091C24.8035 11.2167 24.8568 11.2238 24.9102 11.2296L24.9553 11.2337C24.998 11.2373 25.0414 11.2408 25.0848 11.2431L25.1352 11.246C25.1938 11.246 25.2488 11.2507 25.3063 11.2507C25.3742 11.2507 25.441 11.2507 25.5078 11.2449L25.5711 11.2402C25.6168 11.2367 25.6619 11.2337 25.707 11.229L25.7803 11.2197C25.8213 11.2144 25.8629 11.2091 25.9039 11.2027L25.9777 11.1892C26.0176 11.1822 26.058 11.1746 26.0949 11.1664L26.167 11.1494C26.2068 11.14 26.2467 11.1306 26.2842 11.1195C26.307 11.1136 26.3293 11.1072 26.3521 11.1001C26.3926 11.0884 26.433 11.0761 26.4729 11.0632L26.535 11.0421C26.5766 11.0275 26.6176 11.0123 26.6586 10.9964L26.7131 10.9748C26.757 10.9572 26.8004 10.9384 26.8432 10.9191L26.8871 10.8992C26.9346 10.8769 26.9814 10.854 27.0277 10.8294L27.0564 10.8154C27.1104 10.7861 27.1643 10.7568 27.217 10.7246H27.2205C27.5587 10.5257 27.864 10.2755 28.1252 9.98276C28.7302 9.2983 29.0637 8.41601 29.0627 7.50249V7.50249Z" fill="white"/>
<path d="M21.7605 11.867L15.5754 16.6775C15.4109 16.8054 15.2084 16.8749 15 16.8749C14.7916 16.8749 14.5891 16.8054 14.4246 16.6775L5.98711 10.115C5.88798 10.0402 5.80471 9.94636 5.74215 9.83904C5.67959 9.73172 5.63898 9.61303 5.62269 9.48988C5.60639 9.36673 5.61473 9.24157 5.64723 9.12167C5.67972 9.00177 5.73572 8.88952 5.81197 8.79145C5.88822 8.69338 5.9832 8.61145 6.09139 8.5504C6.19959 8.48936 6.31883 8.45042 6.4422 8.43586C6.56557 8.4213 6.6906 8.43141 6.81003 8.46559C6.92946 8.49976 7.0409 8.55734 7.13789 8.63496L15 14.7498L20.5207 10.4561C19.9865 9.59189 19.6967 8.59903 19.6822 7.58319C19.6676 6.56736 19.9289 5.56661 20.4381 4.6875H5.15625C4.28629 4.68843 3.45224 5.03443 2.83708 5.64958C2.22193 6.26474 1.87593 7.09879 1.875 7.96875V22.0312C1.87593 22.9012 2.22193 23.7353 2.83708 24.3504C3.45224 24.9656 4.28629 25.3116 5.15625 25.3125H24.8438C25.7137 25.3116 26.5478 24.9656 27.1629 24.3504C27.7781 23.7353 28.1241 22.9012 28.125 22.0312V12.3744C27.1381 12.9461 26.0006 13.2037 24.8637 13.1131C23.7268 13.0224 22.6444 12.5878 21.7605 11.867V11.867Z" fill="white"/>
</svg>
