<svg width="34" height="34" viewBox="0 0 34 34" fill="none" xmlns="http://www.w3.org/2000/svg">
<path d="M22.3125 22.3913C23.681 22.3913 24.7917 23.5332 24.7917 24.9402V27.8561L24.7803 28.0134C24.3412 31.1114 21.6353 32.6 17.0949 32.6C12.5715 32.6 9.82175 31.1289 9.22817 28.0673L9.20833 27.8532V24.9402C9.20833 23.5332 10.319 22.3913 11.6875 22.3913H22.3125ZM23.0123 13.6521H31.5208C32.8893 13.6521 34 14.7941 34 16.2011V19.117L33.9887 19.2743C33.5495 22.3723 30.8437 23.8609 26.3032 23.8609L26.0653 23.858C25.8469 23.0597 25.393 22.3507 24.7663 21.8288C24.1397 21.3068 23.3709 20.9975 22.5661 20.9435L22.3125 20.9347H21.0063C21.7466 20.321 22.3437 19.5445 22.7536 18.6623C23.1635 17.7801 23.3758 16.8146 23.375 15.8369C23.375 15.0708 23.2475 14.3367 23.0123 13.6521ZM2.47917 13.6521H10.9877C10.7525 14.3367 10.625 15.0708 10.625 15.8369C10.625 17.7741 11.4438 19.5175 12.7443 20.7163L12.9937 20.9347H11.6875C9.89967 20.9347 8.39233 22.1728 7.93333 23.8623L7.88658 23.8609C3.36317 23.8609 0.613417 22.3898 0.0198332 19.3282L0 19.1141V16.2011C0 14.7941 1.11067 13.6521 2.47917 13.6521ZM17 10.7391C18.315 10.7391 19.5762 11.2762 20.5061 12.2322C21.4359 13.1883 21.9583 14.4849 21.9583 15.8369C21.9583 17.189 21.4359 18.4856 20.5061 19.4416C19.5762 20.3977 18.315 20.9347 17 20.9347C15.685 20.9347 14.4238 20.3977 13.4939 19.4416C12.5641 18.4856 12.0417 17.189 12.0417 15.8369C12.0417 14.4849 12.5641 13.1883 13.4939 12.2322C14.4238 11.2762 15.685 10.7391 17 10.7391ZM26.2083 2C27.5234 2 28.7845 2.53709 29.7144 3.49312C30.6443 4.44914 31.1667 5.74579 31.1667 7.09782C31.1667 8.44984 30.6443 9.74649 29.7144 10.7025C28.7845 11.6585 27.5234 12.1956 26.2083 12.1956C24.8933 12.1956 23.6321 11.6585 22.7023 10.7025C21.7724 9.74649 21.25 8.44984 21.25 7.09782C21.25 5.74579 21.7724 4.44914 22.7023 3.49312C23.6321 2.53709 24.8933 2 26.2083 2ZM7.79167 2C9.1067 2 10.3679 2.53709 11.2977 3.49312C12.2276 4.44914 12.75 5.74579 12.75 7.09782C12.75 8.44984 12.2276 9.74649 11.2977 10.7025C10.3679 11.6585 9.1067 12.1956 7.79167 12.1956C6.47663 12.1956 5.21546 11.6585 4.2856 10.7025C3.35573 9.74649 2.83333 8.44984 2.83333 7.09782C2.83333 5.74579 3.35573 4.44914 4.2856 3.49312C5.21546 2.53709 6.47663 2 7.79167 2Z" fill="black"/>
</svg>
