<svg width="398" height="398" viewBox="0 0 398 398" fill="none" xmlns="http://www.w3.org/2000/svg">
<path fill-rule="evenodd" clip-rule="evenodd" d="M212.252 195.017L209.603 200.648L220.53 206.611C221.192 204.955 221.523 202.967 222.848 200.98C230.795 187.067 251.987 191.705 254.636 205.286C259.603 204.623 267.55 202.967 271.854 201.311L272.185 198.33C270.861 197.667 266.225 196.011 264.569 195.349C259.603 193.692 243.046 185.742 242.053 185.411C240.728 186.405 239.735 187.73 237.417 188.061C231.126 188.724 226.821 181.768 229.47 176.468C230.795 173.818 234.106 171.168 238.41 172.824C242.053 174.149 243.708 176.799 243.708 181.105C246.358 183.093 270.199 194.355 273.841 194.686C274.503 193.692 275.165 193.361 275.497 192.036L268.212 181.768C265.563 182.43 260.927 185.742 254.636 180.443C248.675 175.474 250.331 168.849 249.669 167.855C248.344 167.193 235.43 162.224 233.444 161.893C232.781 164.874 228.146 167.855 223.841 168.186L220.53 176.468C223.51 177.793 225.497 184.417 223.51 189.055C221.523 193.361 218.212 195.349 212.252 195.017ZM293.377 166.862C295.033 170.836 294.702 173.486 297.02 173.818L295.364 166.53C294.702 166.53 294.371 166.53 293.377 166.862ZM291.059 177.13C291.722 175.474 292.053 175.143 293.708 173.818C293.377 172.493 292.715 170.836 292.053 169.511C291.391 167.193 291.722 166.53 289.404 166.199L288.41 176.799L291.059 177.13ZM218.212 107.237L220.199 107.569C220.861 104.587 224.172 99.95 224.503 97.9626C222.185 96.9688 218.212 96.3063 215.563 95.9751C216.887 99.95 217.55 102.931 218.212 107.237ZM248.675 240.398C249.338 247.354 259.934 246.692 259.271 239.404C258.609 232.448 248.013 233.11 248.675 240.398ZM223.51 280.147C226.821 280.147 244.371 274.516 247.02 271.866C246.358 271.535 240.066 269.547 239.735 269.547C238.742 269.879 238.41 270.872 236.093 270.541C234.437 270.541 233.775 269.879 232.45 269.547C231.126 271.535 225.165 277.829 223.51 280.147ZM287.417 188.724C291.722 190.38 292.384 192.699 292.715 197.999C294.371 197.999 295.695 197.999 296.358 197.005C299.007 194.024 298.344 190.711 298.344 185.742C295.033 185.742 293.708 186.074 292.053 183.424C290.397 180.774 292.053 179.449 288.079 179.449L287.417 188.724ZM282.781 240.398C284.106 238.41 285.43 236.092 286.755 234.104C288.742 230.129 288.41 230.129 289.735 226.486C287.748 227.811 286.093 227.479 284.768 225.823C283.775 226.486 282.45 227.479 281.457 228.142L278.146 230.461C277.152 231.454 277.152 232.448 276.49 234.435C275.828 235.76 275.165 236.754 274.834 237.748C276.821 239.073 279.801 240.398 282.781 240.398ZM222.185 131.75C222.516 133.406 222.848 136.387 223.179 138.374L224.172 143.343C226.49 143.674 227.152 144.337 229.139 145.331C231.457 143.674 233.775 141.687 235.761 140.031C235.43 138.706 232.119 135.393 231.126 134.068C229.801 132.743 227.814 129.762 226.159 128.768C224.834 129.431 223.841 131.418 222.185 131.75ZM270.861 179.118C271.523 181.105 276.49 188.061 278.146 190.049C280.795 189.055 281.126 188.392 284.768 188.392L285.43 178.786C283.775 178.124 274.834 176.468 272.185 176.136C271.854 177.461 271.523 178.124 270.861 179.118ZM287.086 164.874C285.099 163.549 284.106 162.887 283.112 161.562C280.463 162.224 273.841 165.537 272.185 166.862C272.516 169.18 273.179 169.843 273.179 172.824L285.761 175.805L287.086 164.874ZM232.45 147.981C232.45 148.312 234.106 151.624 234.437 152.287C235.099 154.274 235.099 155.93 235.099 157.918L250.993 164.212L252.98 161.562C251.656 159.574 239.404 144.006 238.41 143.012C236.424 144.337 234.106 146.987 232.45 147.981ZM238.742 137.381L249.007 130.425C248.013 129.762 247.682 129.1 246.689 127.775C246.026 126.45 246.026 125.456 245.364 124.131C242.384 123.137 232.119 120.818 228.477 120.487C228.477 121.812 228.477 122.475 228.146 123.8C227.814 125.125 227.814 124.793 228.808 126.118L238.742 137.381ZM277.483 228.142C288.742 221.848 282.45 223.504 287.748 216.548C293.046 209.261 293.046 215.223 296.689 203.63C294.702 201.642 295.695 201.311 295.033 200.317C292.053 200.98 292.384 199.986 291.059 202.636C288.41 207.936 284.768 209.592 279.47 211.248L273.51 224.829C274.503 225.492 274.834 225.492 275.828 226.154L277.152 227.811V228.142H277.483ZM241.391 140.693C241.722 141.687 244.04 144.337 244.702 145.331C246.026 146.987 247.351 148.312 248.675 149.968C249.669 151.624 250.993 153.28 252.318 154.937C253.311 156.262 254.636 158.58 255.96 159.574L259.271 158.912L257.616 136.387C250.331 134.4 255.96 130.093 241.391 140.693ZM261.589 137.712C260.927 139.368 262.583 156.262 262.914 159.243C265.563 161.23 265.232 159.574 269.867 163.88C272.185 163.218 276.821 159.905 281.126 158.912C280.132 154.605 279.47 155.268 275.497 153.943C274.172 154.605 273.841 155.599 272.185 155.599C270.861 155.599 269.536 154.937 268.543 154.274C262.252 149.306 268.212 143.674 273.179 148.974C274.172 149.968 274.503 150.962 275.828 151.624C276.821 151.955 278.477 152.618 279.47 152.949L280.795 149.968C278.808 148.312 269.867 138.706 268.543 137.712C267.55 137.049 267.218 137.712 265.894 137.712C264.238 138.043 262.914 137.712 261.589 137.712ZM227.483 211.58C229.801 225.492 250.331 221.848 248.344 208.267C246.026 195.017 225.165 197.999 227.483 211.58ZM223.841 109.887C225.497 112.537 226.821 112.869 228.146 117.175C234.437 118.169 239.735 120.156 245.695 121.481C248.013 113.531 261.92 119.162 268.212 127.112C270.53 129.762 270.861 131.75 269.867 136.056L280.463 146.987C282.119 148.974 281.457 148.974 285.43 148.974C285.099 146.656 282.781 140.031 281.788 137.712C279.801 131.418 264.569 116.181 260.596 114.525C256.291 120.156 236.755 109.225 242.384 103.925C239.404 102.269 233.112 99.95 229.139 99.2875C227.483 102.6 225.497 105.912 223.841 109.887ZM264.569 212.242C270.199 210.255 269.867 218.204 265.232 219.529C262.914 220.192 261.258 218.867 261.258 216.548C261.589 214.561 263.245 212.573 264.569 212.242ZM261.258 229.136C262.583 227.811 264.238 226.817 266.556 225.823C270.199 224.498 269.867 226.154 271.523 222.511C272.848 219.861 276.49 212.905 276.821 210.586C271.854 207.273 274.172 207.936 272.185 204.955L255.629 208.93C254.967 223.836 245.033 225.492 243.377 227.148C245.364 228.473 247.351 230.461 249.669 231.786C252.318 231.123 253.973 230.129 256.954 231.454C263.907 234.104 264.901 243.379 258.94 247.354C253.642 251.329 251.656 247.023 249.669 249.341L240.728 259.941C240.397 260.604 240.397 260.273 240.066 260.935C241.391 263.254 241.059 263.254 241.722 266.235C243.708 266.897 249.669 269.879 251.656 269.547C254.636 269.216 270.53 256.298 273.51 252.323C271.854 252.654 269.867 253.979 268.212 254.641C264.901 255.966 266.225 255.635 264.238 257.623C262.583 259.61 258.278 263.254 254.305 262.591C249.338 261.598 254.305 253.316 261.589 251.329C264.901 250.666 264.901 251.329 266.556 252.985C269.536 251.991 271.854 250.666 274.172 249.341C275.497 248.679 277.152 248.017 277.814 247.023C278.808 246.029 279.801 244.704 280.132 243.71C279.47 243.379 277.152 243.048 275.828 242.717C274.503 242.054 273.51 241.723 272.185 241.06C269.867 242.054 268.874 244.042 265.563 245.035C267.881 235.76 265.563 234.435 261.258 229.136Z" fill="white"/>
<path fill-rule="evenodd" clip-rule="evenodd" d="M117.218 200.317L166.556 182.43L206.953 198.992L223.841 161.23C223.178 156.924 213.907 97.6312 212.251 95.975C181.788 89.0188 151.986 98.6249 129.47 120.487C126.49 123.468 123.178 127.112 120.529 130.756C108.94 145.993 102.98 163.218 101.655 183.092C101.324 187.067 102.649 187.067 107.616 191.705C109.271 193.03 115.563 200.317 117.218 200.317Z" fill="white"/>
<path fill-rule="evenodd" clip-rule="evenodd" d="M108.94 240.729C113.245 241.06 118.212 241.723 122.516 242.054C124.172 242.054 134.437 242.716 135.761 243.71C132.781 245.698 121.523 257.954 119.536 259.61V248.679C118.874 248.016 118.212 247.685 117.549 247.022V263.585C117.549 264.578 117.218 264.578 117.88 265.241C119.205 265.572 119.867 266.566 121.192 266.235C122.516 265.903 122.847 264.91 124.834 265.241L146.357 269.878C146.688 269.878 146.688 269.878 147.02 270.21L121.854 271.203C120.198 272.528 119.536 271.866 119.205 274.516C118.874 276.503 118.543 278.16 118.543 280.147L123.178 282.797C126.49 283.128 134.768 279.816 138.41 279.816C137.748 280.478 137.086 281.141 136.424 281.803C127.814 289.753 132.781 289.091 122.847 288.428C123.178 292.072 122.185 295.384 123.841 298.365C128.808 306.315 140.397 306.315 148.675 303.997C152.318 303.003 151.655 302.672 154.967 299.028C156.953 296.709 169.536 282.134 170.198 280.809C169.205 278.491 164.9 272.86 163.245 270.541L143.377 240.729H143.046L130.794 222.179C129.801 220.523 119.536 204.623 118.212 203.629C117.549 209.261 108.278 238.741 108.94 240.729Z" fill="white"/>
<path fill-rule="evenodd" clip-rule="evenodd" d="M173.179 277.497L217.55 223.173C220.53 219.529 218.212 214.892 218.874 210.586L206.291 203.961L170.199 214.23L136.093 223.836L173.179 277.497Z" fill="white"/>
<circle cx="199" cy="199" r="181" stroke="#999999" stroke-width="2"/>
<circle cx="199" cy="199" r="198" stroke="#999999" stroke-width="2"/>
</svg>
