<svg width="1202" height="416" viewBox="0 0 1202 416" fill="none" xmlns="http://www.w3.org/2000/svg">
<path fill-rule="evenodd" clip-rule="evenodd" d="M613.252 180.017L610.603 185.648L621.53 191.611C622.192 189.955 622.523 187.967 623.848 185.98C631.795 172.067 652.987 176.705 655.636 190.286C660.603 189.623 668.55 187.967 672.854 186.311L673.185 183.33C671.861 182.667 667.225 181.011 665.569 180.349C660.603 178.692 644.046 170.742 643.053 170.411C641.728 171.405 640.735 172.73 638.417 173.061C632.126 173.724 627.821 166.768 630.47 161.468C631.795 158.818 635.106 156.168 639.41 157.824C643.053 159.149 644.708 161.799 644.708 166.105C647.358 168.093 671.199 179.355 674.841 179.686C675.503 178.692 676.165 178.361 676.497 177.036L669.212 166.768C666.563 167.43 661.927 170.742 655.636 165.443C649.675 160.474 651.331 153.849 650.669 152.855C649.344 152.193 636.43 147.224 634.444 146.893C633.781 149.874 629.146 152.855 624.841 153.186L621.53 161.468C624.51 162.793 626.497 169.417 624.51 174.055C622.523 178.361 619.212 180.349 613.252 180.017ZM694.377 151.862C696.033 155.836 695.702 158.486 698.02 158.818L696.364 151.53C695.702 151.53 695.371 151.53 694.377 151.862ZM692.059 162.13C692.722 160.474 693.053 160.143 694.708 158.818C694.377 157.493 693.715 155.836 693.053 154.511C692.391 152.193 692.722 151.53 690.404 151.199L689.41 161.799L692.059 162.13ZM619.212 92.2374L621.199 92.5687C621.861 89.5875 625.172 84.95 625.503 82.9626C623.185 81.9688 619.212 81.3063 616.563 80.9751C617.887 84.95 618.55 87.9312 619.212 92.2374ZM649.675 225.398C650.338 232.354 660.934 231.692 660.271 224.404C659.609 217.448 649.013 218.11 649.675 225.398ZM624.51 265.147C627.821 265.147 645.371 259.516 648.02 256.866C647.358 256.535 641.066 254.547 640.735 254.547C639.742 254.879 639.41 255.872 637.093 255.541C635.437 255.541 634.775 254.879 633.45 254.547C632.126 256.535 626.165 262.829 624.51 265.147ZM688.417 173.724C692.722 175.38 693.384 177.699 693.715 182.999C695.371 182.999 696.695 182.999 697.358 182.005C700.007 179.024 699.344 175.711 699.344 170.742C696.033 170.742 694.708 171.074 693.053 168.424C691.397 165.774 693.053 164.449 689.079 164.449L688.417 173.724ZM683.781 225.398C685.106 223.41 686.43 221.092 687.755 219.104C689.742 215.129 689.41 215.129 690.735 211.486C688.748 212.811 687.093 212.479 685.768 210.823C684.775 211.486 683.45 212.479 682.457 213.142L679.146 215.461C678.152 216.454 678.152 217.448 677.49 219.435C676.828 220.76 676.165 221.754 675.834 222.748C677.821 224.073 680.801 225.398 683.781 225.398ZM623.185 116.75C623.516 118.406 623.848 121.387 624.179 123.374L625.172 128.343C627.49 128.674 628.152 129.337 630.139 130.331C632.457 128.674 634.775 126.687 636.761 125.031C636.43 123.706 633.119 120.393 632.126 119.068C630.801 117.743 628.814 114.762 627.159 113.768C625.834 114.431 624.841 116.418 623.185 116.75ZM671.861 164.118C672.523 166.105 677.49 173.061 679.146 175.049C681.795 174.055 682.126 173.392 685.768 173.392L686.43 163.786C684.775 163.124 675.834 161.468 673.185 161.136C672.854 162.461 672.523 163.124 671.861 164.118ZM688.086 149.874C686.099 148.549 685.106 147.887 684.112 146.562C681.463 147.224 674.841 150.537 673.185 151.862C673.516 154.18 674.179 154.843 674.179 157.824L686.761 160.805L688.086 149.874ZM633.45 132.981C633.45 133.312 635.106 136.624 635.437 137.287C636.099 139.274 636.099 140.93 636.099 142.918L651.993 149.212L653.98 146.562C652.656 144.574 640.404 129.006 639.41 128.012C637.424 129.337 635.106 131.987 633.45 132.981ZM639.742 122.381L650.007 115.425C649.013 114.762 648.682 114.1 647.689 112.775C647.026 111.45 647.026 110.456 646.364 109.131C643.384 108.137 633.119 105.818 629.477 105.487C629.477 106.812 629.477 107.475 629.146 108.8C628.814 110.125 628.814 109.793 629.808 111.118L639.742 122.381ZM678.483 213.142C689.742 206.848 683.45 208.504 688.748 201.548C694.046 194.261 694.046 200.223 697.689 188.63C695.702 186.642 696.695 186.311 696.033 185.317C693.053 185.98 693.384 184.986 692.059 187.636C689.41 192.936 685.768 194.592 680.47 196.248L674.51 209.829C675.503 210.492 675.834 210.492 676.828 211.154L678.152 212.811V213.142H678.483ZM642.391 125.693C642.722 126.687 645.04 129.337 645.702 130.331C647.026 131.987 648.351 133.312 649.675 134.968C650.669 136.624 651.993 138.28 653.318 139.937C654.311 141.262 655.636 143.58 656.96 144.574L660.271 143.912L658.616 121.387C651.331 119.4 656.96 115.093 642.391 125.693ZM662.589 122.712C661.927 124.368 663.583 141.262 663.914 144.243C666.563 146.23 666.232 144.574 670.867 148.88C673.185 148.218 677.821 144.905 682.126 143.912C681.132 139.605 680.47 140.268 676.497 138.943C675.172 139.605 674.841 140.599 673.185 140.599C671.861 140.599 670.536 139.937 669.543 139.274C663.252 134.306 669.212 128.674 674.179 133.974C675.172 134.968 675.503 135.962 676.828 136.624C677.821 136.955 679.477 137.618 680.47 137.949L681.795 134.968C679.808 133.312 670.867 123.706 669.543 122.712C668.55 122.049 668.218 122.712 666.894 122.712C665.238 123.043 663.914 122.712 662.589 122.712ZM628.483 196.58C630.801 210.492 651.331 206.848 649.344 193.267C647.026 180.017 626.165 182.999 628.483 196.58ZM624.841 94.8874C626.497 97.5373 627.821 97.8686 629.146 102.175C635.437 103.169 640.735 105.156 646.695 106.481C649.013 98.5311 662.92 104.162 669.212 112.112C671.53 114.762 671.861 116.75 670.867 121.056L681.463 131.987C683.119 133.974 682.457 133.974 686.43 133.974C686.099 131.656 683.781 125.031 682.788 122.712C680.801 116.418 665.569 101.181 661.596 99.5248C657.291 105.156 637.755 94.2249 643.384 88.925C640.404 87.2688 634.112 84.95 630.139 84.2875C628.483 87.6 626.497 90.9124 624.841 94.8874ZM665.569 197.242C671.199 195.255 670.867 203.204 666.232 204.529C663.914 205.192 662.258 203.867 662.258 201.548C662.589 199.561 664.245 197.573 665.569 197.242ZM662.258 214.136C663.583 212.811 665.238 211.817 667.556 210.823C671.199 209.498 670.867 211.154 672.523 207.511C673.848 204.861 677.49 197.905 677.821 195.586C672.854 192.273 675.172 192.936 673.185 189.955L656.629 193.93C655.967 208.836 646.033 210.492 644.377 212.148C646.364 213.473 648.351 215.461 650.669 216.786C653.318 216.123 654.973 215.129 657.954 216.454C664.907 219.104 665.901 228.379 659.94 232.354C654.642 236.329 652.656 232.023 650.669 234.341L641.728 244.941C641.397 245.604 641.397 245.273 641.066 245.935C642.391 248.254 642.059 248.254 642.722 251.235C644.708 251.897 650.669 254.879 652.656 254.547C655.636 254.216 671.53 241.298 674.51 237.323C672.854 237.654 670.867 238.979 669.212 239.641C665.901 240.966 667.225 240.635 665.238 242.623C663.583 244.61 659.278 248.254 655.305 247.591C650.338 246.598 655.305 238.316 662.589 236.329C665.901 235.666 665.901 236.329 667.556 237.985C670.536 236.991 672.854 235.666 675.172 234.341C676.497 233.679 678.152 233.017 678.814 232.023C679.808 231.029 680.801 229.704 681.132 228.71C680.47 228.379 678.152 228.048 676.828 227.717C675.503 227.054 674.51 226.723 673.185 226.06C670.867 227.054 669.874 229.042 666.563 230.035C668.881 220.76 666.563 219.435 662.258 214.136Z" fill="white"/>
<path fill-rule="evenodd" clip-rule="evenodd" d="M518.218 185.317L567.556 167.43L607.953 183.992L624.841 146.23C624.178 141.924 614.907 82.6312 613.251 80.975C582.788 74.0188 552.986 83.6249 530.47 105.487C527.49 108.468 524.178 112.112 521.529 115.756C509.94 130.993 503.98 148.218 502.655 168.092C502.324 172.067 503.649 172.067 508.616 176.705C510.271 178.03 516.563 185.317 518.218 185.317Z" fill="white"/>
<path fill-rule="evenodd" clip-rule="evenodd" d="M509.94 225.729C514.245 226.06 519.212 226.723 523.516 227.054C525.172 227.054 535.437 227.716 536.761 228.71C533.781 230.698 522.523 242.954 520.536 244.61V233.679C519.874 233.016 519.212 232.685 518.549 232.022V248.585C518.549 249.578 518.218 249.578 518.88 250.241C520.205 250.572 520.867 251.566 522.192 251.235C523.516 250.903 523.847 249.91 525.834 250.241L547.357 254.878C547.688 254.878 547.688 254.878 548.02 255.21L522.854 256.203C521.198 257.528 520.536 256.866 520.205 259.516C519.874 261.503 519.543 263.16 519.543 265.147L524.178 267.797C527.49 268.128 535.768 264.816 539.41 264.816C538.748 265.478 538.086 266.141 537.424 266.803C528.814 274.753 533.781 274.091 523.847 273.428C524.178 277.072 523.185 280.384 524.841 283.365C529.808 291.315 541.397 291.315 549.675 288.997C553.318 288.003 552.655 287.672 555.967 284.028C557.953 281.709 570.536 267.134 571.198 265.809C570.205 263.491 565.9 257.86 564.245 255.541L544.377 225.729H544.046L531.794 207.179C530.801 205.523 520.536 189.623 519.212 188.629C518.549 194.261 509.278 223.741 509.94 225.729Z" fill="white"/>
<path fill-rule="evenodd" clip-rule="evenodd" d="M574.179 262.497L618.55 208.173C621.53 204.529 619.212 199.892 619.874 195.586L607.291 188.961L571.199 199.23L537.093 208.836L574.179 262.497Z" fill="white"/>
<circle cx="601" cy="192" r="191" stroke="#E6E6E6" stroke-width="2" stroke-dasharray="10 10"/>
<path d="M819.084 178.968C818.889 179.163 818.889 179.48 819.084 179.675L822.266 182.857C822.461 183.052 822.778 183.052 822.973 182.857C823.168 182.662 823.168 182.345 822.973 182.15L820.145 179.321L822.973 176.493C823.168 176.298 823.168 175.981 822.973 175.786C822.778 175.591 822.461 175.591 822.266 175.786L819.084 178.968ZM1059.94 179.321L1059.94 178.821L1059.94 179.321ZM1086.94 186.822L1087.29 186.468L1086.94 186.822ZM1095.44 212.821L1095.94 212.832L1095.94 212.821L1095.44 212.821ZM1095.44 212.821L1094.94 212.81L1094.94 212.821L1095.44 212.821ZM1093.39 408.61C1092.45 409.739 1092.6 411.421 1093.73 412.366C1094.86 413.312 1096.54 413.162 1097.48 412.033C1098.43 410.904 1098.28 409.222 1097.15 408.276C1096.02 407.331 1094.34 407.48 1093.39 408.61ZM819.438 179.821L824.448 179.821L824.448 178.821L819.438 178.821L819.438 179.821ZM834.469 179.821L844.49 179.821L844.49 178.821L834.469 178.821L834.469 179.821ZM854.511 179.821L864.531 179.821L864.531 178.821L854.511 178.821L854.511 179.821ZM874.552 179.821L884.573 179.821L884.573 178.821L874.552 178.821L874.552 179.821ZM894.594 179.821L904.615 179.821L904.615 178.821L894.594 178.821L894.594 179.821ZM914.636 179.821L924.657 179.821L924.657 178.821L914.636 178.821L914.636 179.821ZM934.677 179.821L944.698 179.821L944.698 178.821L934.677 178.821L934.677 179.821ZM954.719 179.821L964.74 179.821L964.74 178.821L954.719 178.821L954.719 179.821ZM974.761 179.821L984.782 179.821L984.782 178.821L974.761 178.821L974.761 179.821ZM994.803 179.821L1004.82 179.821L1004.82 178.821L994.803 178.821L994.803 179.821ZM1014.84 179.821L1024.87 179.821L1024.87 178.821L1014.84 178.821L1014.84 179.821ZM1034.89 179.821L1044.91 179.821L1044.91 178.821L1034.89 178.821L1034.89 179.821ZM1054.93 179.821L1059.94 179.821L1059.94 178.821L1054.93 178.821L1054.93 179.821ZM1059.94 179.821C1062.04 179.821 1064.48 179.733 1067.15 179.831L1067.18 178.832C1064.5 178.733 1061.99 178.821 1059.94 178.821L1059.94 179.821ZM1080.9 183.005C1082.88 184.035 1084.8 185.391 1086.58 187.175L1087.29 186.468C1085.43 184.608 1083.43 183.193 1081.36 182.118L1080.9 183.005ZM1086.58 187.175C1088.38 188.969 1089.79 190.782 1090.89 192.603L1091.74 192.085C1090.6 190.192 1089.14 188.316 1087.29 186.468L1086.58 187.175ZM1094.77 205.799C1094.94 208.154 1094.94 210.496 1094.94 212.821L1095.94 212.821C1095.94 210.502 1095.94 208.124 1095.76 205.726L1094.77 205.799ZM1094.94 212.81L1094.94 212.81L1095.94 212.832L1095.94 212.832L1094.94 212.81ZM1094.94 212.81L1094.94 212.81L1095.94 212.833L1095.94 212.832L1094.94 212.81ZM1094.94 212.821C1094.94 213.461 1094.94 215.124 1094.94 217.651L1095.94 217.651C1095.94 215.124 1095.94 213.461 1095.94 212.821L1094.94 212.821ZM1094.94 227.574C1094.94 230.513 1094.94 233.819 1094.94 237.432L1095.94 237.432C1095.94 233.819 1095.94 230.513 1095.94 227.574L1094.94 227.574ZM1094.94 247.38C1094.94 250.515 1094.94 253.801 1094.94 257.212L1095.94 257.212C1095.94 253.801 1095.94 250.515 1095.94 247.38L1094.94 247.38ZM1094.94 267.092C1094.94 270.316 1094.94 273.62 1094.94 276.984L1095.94 276.984C1095.94 273.62 1095.94 270.316 1095.94 267.092L1094.94 267.092ZM1094.94 286.875C1094.94 290.136 1094.94 293.436 1094.94 296.759L1095.94 296.759C1095.94 293.436 1095.94 290.136 1095.94 286.875L1094.94 286.875ZM1094.94 306.633C1094.94 309.924 1094.94 313.222 1094.94 316.513L1095.94 316.513C1095.94 313.222 1095.94 309.924 1095.94 306.633L1094.94 306.633ZM1094.94 326.396C1094.94 329.72 1094.94 333.02 1094.94 336.282L1095.94 336.282C1095.94 333.02 1095.94 329.72 1095.94 326.396L1094.94 326.396ZM1094.94 346.167C1094.94 349.526 1094.94 352.824 1094.94 356.043L1095.94 356.043C1095.94 352.824 1095.94 349.526 1095.94 346.167L1094.94 346.167ZM1094.94 365.892C1094.94 369.337 1094.94 372.653 1094.94 375.814L1095.94 375.814C1095.94 372.653 1095.94 369.337 1095.94 365.892L1094.94 365.892ZM1094.94 385.686C1094.94 389.328 1094.94 392.653 1094.94 395.601L1095.94 395.601C1095.94 392.653 1095.94 389.328 1095.94 385.686L1094.94 385.686ZM1094.94 405.414C1094.94 406.995 1094.94 408.222 1094.94 409.054C1094.94 409.469 1094.94 409.786 1094.94 409.999C1094.94 410.106 1094.94 410.186 1094.94 410.24C1094.94 410.267 1094.94 410.288 1094.94 410.301C1094.94 410.308 1094.94 410.313 1094.94 410.316C1094.94 410.318 1094.94 410.319 1094.94 410.32C1094.94 410.321 1094.94 410.321 1094.94 410.321C1094.94 410.321 1094.94 410.321 1094.94 410.321C1094.94 410.321 1094.94 410.321 1094.94 410.321C1094.94 410.321 1094.94 410.321 1095.44 410.321C1095.94 410.321 1095.94 410.321 1095.94 410.321C1095.94 410.321 1095.94 410.321 1095.94 410.321C1095.94 410.321 1095.94 410.321 1095.94 410.321C1095.94 410.321 1095.94 410.321 1095.94 410.32C1095.94 410.319 1095.94 410.318 1095.94 410.316C1095.94 410.313 1095.94 410.308 1095.94 410.301C1095.94 410.287 1095.94 410.267 1095.94 410.24C1095.94 410.186 1095.94 410.106 1095.94 409.999C1095.94 409.786 1095.94 409.469 1095.94 409.054C1095.94 408.222 1095.94 406.995 1095.94 405.414L1094.94 405.414ZM818.73 178.614C818.34 179.005 818.34 179.638 818.73 180.029L825.094 186.392C825.485 186.783 826.118 186.783 826.509 186.392C826.899 186.002 826.899 185.369 826.509 184.978L820.852 179.321L826.509 173.665C826.899 173.274 826.899 172.641 826.509 172.25C826.118 171.86 825.485 171.86 825.094 172.25L818.73 178.614ZM1059.94 179.321L1059.94 178.321L1059.94 178.321L1059.94 179.321ZM1086.94 186.822L1087.65 186.114L1086.94 186.822ZM1095.44 212.821L1096.44 212.843L1096.44 212.832L1096.44 212.821L1095.44 212.821ZM1095.44 212.821L1094.44 212.799L1094.44 212.81L1094.44 212.821L1095.44 212.821ZM1091.35 406.898C1089.46 409.157 1089.76 412.521 1092.01 414.411C1094.27 416.302 1097.64 416.003 1099.53 413.744C1101.42 411.486 1101.12 408.122 1098.86 406.232C1096.6 404.341 1093.24 404.64 1091.35 406.898ZM819.438 180.321L824.448 180.321L824.448 178.321L819.438 178.321L819.438 180.321ZM834.469 180.321L844.49 180.321L844.49 178.321L834.469 178.321L834.469 180.321ZM854.511 180.321L864.531 180.321L864.531 178.321L854.511 178.321L854.511 180.321ZM874.552 180.321L884.573 180.321L884.573 178.321L874.552 178.321L874.552 180.321ZM894.594 180.321L904.615 180.321L904.615 178.321L894.594 178.321L894.594 180.321ZM914.636 180.321L924.657 180.321L924.657 178.321L914.636 178.321L914.636 180.321ZM934.677 180.321L944.698 180.321L944.698 178.321L934.677 178.321L934.677 180.321ZM954.719 180.321L964.74 180.321L964.74 178.321L954.719 178.321L954.719 180.321ZM974.761 180.321L984.782 180.321L984.782 178.321L974.761 178.321L974.761 180.321ZM994.803 180.321L1004.82 180.321L1004.82 178.321L994.803 178.321L994.803 180.321ZM1014.84 180.321L1024.87 180.321L1024.87 178.321L1014.84 178.321L1014.84 180.321ZM1034.89 180.321L1044.91 180.321L1044.91 178.321L1034.89 178.321L1034.89 180.321ZM1054.93 180.321L1059.94 180.321L1059.94 178.321L1054.93 178.321L1054.93 180.321ZM1059.94 180.321C1062.06 180.321 1064.48 180.233 1067.13 180.331L1067.2 178.332C1064.5 178.233 1061.97 178.321 1059.94 178.321L1059.94 180.321ZM1080.67 183.449C1082.61 184.457 1084.48 185.783 1086.23 187.529L1087.65 186.114C1085.75 184.217 1083.7 182.772 1081.59 181.674L1080.67 183.449ZM1086.23 187.529C1088 189.296 1089.38 191.077 1090.46 192.862L1092.17 191.827C1091 189.897 1089.52 187.99 1087.65 186.114L1086.23 187.529ZM1094.27 205.835C1094.44 208.169 1094.44 210.493 1094.44 212.821L1096.44 212.821C1096.44 210.504 1096.44 208.108 1096.26 205.69L1094.27 205.835ZM1094.44 212.799L1094.44 212.799L1096.44 212.843L1096.44 212.843L1094.44 212.799ZM1094.44 212.799L1094.44 212.799L1096.44 212.844L1096.44 212.843L1094.44 212.799ZM1094.44 212.821C1094.44 213.461 1094.44 215.124 1094.44 217.651L1096.44 217.651C1096.44 215.124 1096.44 213.461 1096.44 212.822L1094.44 212.821ZM1094.44 227.574C1094.44 230.513 1094.44 233.819 1094.44 237.432L1096.44 237.432C1096.44 233.819 1096.44 230.513 1096.44 227.574L1094.44 227.574ZM1094.44 247.38C1094.44 250.515 1094.44 253.801 1094.44 257.212L1096.44 257.212C1096.44 253.801 1096.44 250.515 1096.44 247.38L1094.44 247.38ZM1094.44 267.092C1094.44 270.316 1094.44 273.62 1094.44 276.984L1096.44 276.984C1096.44 273.62 1096.44 270.316 1096.44 267.092L1094.44 267.092ZM1094.44 286.875C1094.44 290.136 1094.44 293.436 1094.44 296.759L1096.44 296.759C1096.44 293.436 1096.44 290.136 1096.44 286.875L1094.44 286.875ZM1094.44 306.633C1094.44 309.924 1094.44 313.222 1094.44 316.513L1096.44 316.513C1096.44 313.222 1096.44 309.924 1096.44 306.633L1094.44 306.633ZM1094.44 326.396C1094.44 329.72 1094.44 333.02 1094.44 336.282L1096.44 336.282C1096.44 333.02 1096.44 329.72 1096.44 326.396L1094.44 326.396ZM1094.44 346.167C1094.44 349.526 1094.44 352.824 1094.44 356.043L1096.44 356.043C1096.44 352.824 1096.44 349.526 1096.44 346.167L1094.44 346.167ZM1094.44 365.892C1094.44 369.337 1094.44 372.653 1094.44 375.814L1096.44 375.814C1096.44 372.653 1096.44 369.337 1096.44 365.892L1094.44 365.892ZM1094.44 385.686C1094.44 389.328 1094.44 392.653 1094.44 395.601L1096.44 395.601C1096.44 392.653 1096.44 389.328 1096.44 385.686L1094.44 385.686ZM1094.44 405.414C1094.44 406.995 1094.44 408.222 1094.44 409.054C1094.44 409.469 1094.44 409.786 1094.44 409.999C1094.44 410.106 1094.44 410.186 1094.44 410.24C1094.44 410.267 1094.44 410.288 1094.44 410.301C1094.44 410.308 1094.44 410.313 1094.44 410.316C1094.44 410.318 1094.44 410.319 1094.44 410.32C1094.44 410.321 1094.44 410.321 1094.44 410.321C1094.44 410.321 1094.44 410.321 1094.44 410.321C1094.44 410.321 1094.44 410.321 1094.44 410.321C1094.44 410.321 1094.44 410.321 1095.44 410.321C1096.44 410.321 1096.44 410.321 1096.44 410.321C1096.44 410.321 1096.44 410.321 1096.44 410.321C1096.44 410.321 1096.44 410.321 1096.44 410.321C1096.44 410.321 1096.44 410.321 1096.44 410.32C1096.44 410.319 1096.44 410.318 1096.44 410.316C1096.44 410.313 1096.44 410.308 1096.44 410.301C1096.44 410.287 1096.44 410.267 1096.44 410.24C1096.44 410.186 1096.44 410.106 1096.44 409.999C1096.44 409.786 1096.44 409.469 1096.44 409.054C1096.44 408.222 1096.44 406.995 1096.44 405.414L1094.44 405.414Z" fill="#999999"/>
<path d="M383.137 179.194C383.332 179.39 383.331 179.707 383.136 179.902L379.946 183.076C379.751 183.271 379.434 183.27 379.239 183.075C379.044 182.879 379.045 182.562 379.241 182.368L382.076 179.546L379.254 176.711C379.059 176.515 379.06 176.198 379.255 176.004C379.451 175.809 379.767 175.81 379.962 176.005L383.137 179.194ZM142.302 179.004L142.303 178.504L142.302 179.004ZM115.286 186.443L114.933 186.088L115.286 186.443ZM106.724 212.42L107.224 212.421L107.224 212.435L106.724 212.42ZM106.724 212.42L106.224 212.419L106.225 212.405L106.724 212.42ZM108.293 408.191C109.235 409.322 109.082 411.004 107.95 411.947C106.819 412.889 105.137 412.736 104.195 411.604C103.252 410.473 103.405 408.791 104.537 407.849C105.668 406.906 107.35 407.059 108.293 408.191ZM382.782 180.047L377.772 180.036L377.774 179.036L382.784 179.047L382.782 180.047ZM367.752 180.013L357.732 179.991L357.734 178.991L367.754 179.013L367.752 180.013ZM347.712 179.968L337.692 179.945L337.694 178.945L347.714 178.968L347.712 179.968ZM327.671 179.923L317.651 179.9L317.654 178.9L327.674 178.923L327.671 179.923ZM307.631 179.878L297.611 179.855L297.614 178.855L307.634 178.878L307.631 179.878ZM287.591 179.832L277.571 179.81L277.574 178.81L287.594 178.832L287.591 179.832ZM267.551 179.787L257.531 179.764L257.534 178.764L267.554 178.787L267.551 179.787ZM247.511 179.742L237.491 179.719L237.494 178.719L247.514 178.742L247.511 179.742ZM227.471 179.697L217.451 179.674L217.453 178.674L227.474 178.697L227.471 179.697ZM207.431 179.651L197.411 179.629L197.413 178.629L207.433 178.651L207.431 179.651ZM187.391 179.606L177.371 179.583L177.373 178.583L187.393 178.606L187.391 179.606ZM167.351 179.561L157.331 179.538L157.333 178.538L167.353 178.561L167.351 179.561ZM147.311 179.516L142.301 179.504L142.303 178.504L147.313 178.516L147.311 179.516ZM142.301 179.504C140.199 179.5 137.757 179.406 135.094 179.498L135.059 178.499C137.745 178.406 140.25 178.5 142.303 178.504L142.301 179.504ZM121.331 182.641C119.348 183.666 117.427 185.017 115.639 186.797L114.933 186.088C116.798 184.233 118.803 182.822 120.872 181.752L121.331 182.641ZM115.639 186.797C113.84 188.587 112.43 190.396 111.323 192.215L110.469 191.695C111.62 189.804 113.08 187.932 114.933 186.088L115.639 186.797ZM107.413 205.4C107.235 207.755 107.23 210.096 107.224 212.421L106.224 212.419C106.23 210.099 106.235 207.722 106.416 205.325L107.413 205.4ZM107.224 212.435L107.224 212.435L106.225 212.405L106.225 212.405L107.224 212.435ZM107.224 212.436L107.224 212.436L106.225 212.405L106.225 212.405L107.224 212.436ZM107.224 212.422C107.223 213.061 107.219 214.724 107.213 217.251L106.213 217.249C106.219 214.721 106.223 213.059 106.224 212.419L107.224 212.422ZM107.189 227.172C107.181 230.111 107.173 233.417 107.165 237.029L106.165 237.027C106.173 233.414 106.181 230.109 106.189 227.17L107.189 227.172ZM107.14 246.976C107.133 250.111 107.125 253.397 107.117 256.807L106.117 256.805C106.125 253.395 106.133 250.109 106.14 246.974L107.14 246.976ZM107.093 266.686C107.085 269.91 107.077 273.213 107.068 276.577L106.068 276.574C106.077 273.21 106.085 269.907 106.093 266.683L107.093 266.686ZM107.044 286.466C107.036 289.728 107.028 293.027 107.02 296.349L106.02 296.347C106.028 293.025 106.036 289.725 106.044 286.464L107.044 286.466ZM106.996 306.222C106.988 309.513 106.98 312.811 106.972 316.101L105.972 316.099C105.98 312.809 105.988 309.511 105.996 306.22L106.996 306.222ZM106.948 325.984C106.94 329.307 106.932 332.607 106.924 335.868L105.924 335.865C105.932 332.604 105.94 329.304 105.948 325.981L106.948 325.984ZM106.9 345.751C106.892 349.11 106.884 352.408 106.876 355.626L105.876 355.624C105.884 352.406 105.892 349.108 105.9 345.749L106.9 345.751ZM106.852 365.475C106.843 368.919 106.835 372.235 106.828 375.395L105.828 375.393C105.835 372.232 105.843 368.916 105.852 365.472L106.852 365.475ZM106.804 385.267C106.795 388.908 106.787 392.233 106.779 395.18L105.779 395.177C105.787 392.23 105.795 388.905 105.804 385.264L106.804 385.267ZM106.756 404.992C106.752 406.573 106.749 407.8 106.747 408.631C106.746 409.047 106.745 409.364 106.744 409.577C106.744 409.683 106.744 409.764 106.744 409.818C106.744 409.845 106.744 409.865 106.744 409.878C106.744 409.885 106.744 409.89 106.744 409.894C106.744 409.895 106.744 409.897 106.744 409.898C106.744 409.898 106.744 409.898 106.744 409.898C106.744 409.899 106.744 409.899 106.744 409.899C106.744 409.899 106.744 409.899 106.744 409.899C106.744 409.899 106.744 409.899 106.744 409.899C106.744 409.899 106.744 409.899 106.244 409.898C105.744 409.896 105.744 409.896 105.744 409.896C105.744 409.896 105.744 409.896 105.744 409.896C105.744 409.896 105.744 409.896 105.744 409.896C105.744 409.896 105.744 409.896 105.744 409.895C105.744 409.894 105.744 409.893 105.744 409.891C105.744 409.888 105.744 409.883 105.744 409.876C105.744 409.862 105.744 409.842 105.744 409.815C105.744 409.761 105.744 409.681 105.744 409.574C105.745 409.361 105.746 409.044 105.747 408.629C105.749 407.797 105.752 406.571 105.756 404.99L106.756 404.992ZM383.491 178.842C383.881 179.233 383.88 179.866 383.488 180.256L377.11 186.605C376.719 186.995 376.085 186.994 375.696 186.602C375.306 186.211 375.308 185.578 375.699 185.188L381.369 179.544L375.724 173.874C375.335 173.483 375.336 172.85 375.728 172.46C376.119 172.071 376.752 172.072 377.142 172.463L383.491 178.842ZM142.302 179.004L142.304 178.004L142.302 179.004ZM115.286 186.443L114.581 185.734L115.286 186.443ZM106.724 212.42L107.724 212.422L107.724 212.437L107.724 212.451L106.724 212.42ZM106.724 212.42L105.724 212.418L105.724 212.404L105.725 212.39L106.724 212.42ZM110.341 406.484C112.227 408.747 111.92 412.11 109.657 413.995C107.394 415.881 104.031 415.574 102.146 413.311C100.26 411.048 100.567 407.685 102.83 405.8C105.093 403.914 108.456 404.221 110.341 406.484ZM382.78 180.547L377.77 180.536L377.775 178.536L382.785 178.547L382.78 180.547ZM367.75 180.513L357.73 180.491L357.735 178.491L367.755 178.513L367.75 180.513ZM347.71 180.468L337.69 180.445L337.695 178.445L347.715 178.468L347.71 180.468ZM327.67 180.423L317.65 180.4L317.655 178.4L327.675 178.423L327.67 180.423ZM307.63 180.378L297.61 180.355L297.615 178.355L307.635 178.378L307.63 180.378ZM287.59 180.332L277.57 180.31L277.575 178.31L287.595 178.332L287.59 180.332ZM267.55 180.287L257.53 180.264L257.535 178.264L267.555 178.287L267.55 180.287ZM247.51 180.242L237.49 180.219L237.495 178.219L247.515 178.242L247.51 180.242ZM227.47 180.197L217.45 180.174L217.455 178.174L227.475 178.197L227.47 180.197ZM207.43 180.151L197.41 180.129L197.415 178.129L207.435 178.151L207.43 180.151ZM187.39 180.106L177.37 180.083L177.375 178.083L187.395 178.106L187.39 180.106ZM167.35 180.061L157.33 180.038L157.334 178.038L167.354 178.061L167.35 180.061ZM147.31 180.016L142.3 180.004L142.304 178.004L147.314 178.016L147.31 180.016ZM142.3 180.004C140.174 180 137.763 179.906 135.111 179.998L135.042 177.999C137.739 177.906 140.275 178 142.304 178.004L142.3 180.004ZM121.561 183.085C119.621 184.088 117.742 185.41 115.991 187.152L114.581 185.734C116.483 183.841 118.53 182.4 120.643 181.308L121.561 183.085ZM115.991 187.152C114.22 188.914 112.835 190.692 111.75 192.475L110.042 191.435C111.214 189.509 112.701 187.605 114.581 185.734L115.991 187.152ZM107.911 205.437C107.736 207.771 107.73 210.094 107.724 212.422L105.724 212.418C105.73 210.101 105.735 207.705 105.917 205.287L107.911 205.437ZM107.724 212.451L107.724 212.451L105.725 212.39L105.725 212.389L107.724 212.451ZM107.724 212.451L107.724 212.451L105.725 212.39L105.725 212.39L107.724 212.451ZM107.724 212.423C107.723 213.063 107.719 214.725 107.713 217.252L105.713 217.247C105.719 214.72 105.723 213.058 105.724 212.418L107.724 212.423ZM107.689 227.174C107.681 230.113 107.673 233.418 107.665 237.031L105.665 237.026C105.673 233.413 105.681 230.108 105.689 227.169L107.689 227.174ZM107.64 246.978C107.633 250.112 107.625 253.398 107.617 256.808L105.617 256.803C105.625 253.393 105.633 250.108 105.64 246.973L107.64 246.978ZM107.593 266.687C107.585 269.911 107.577 273.214 107.568 276.578L105.568 276.573C105.577 273.209 105.585 269.906 105.593 266.682L107.593 266.687ZM107.544 286.468C107.536 289.729 107.528 293.028 107.52 296.35L105.52 296.345C105.528 293.023 105.536 289.724 105.544 286.463L107.544 286.468ZM107.496 306.224C107.488 309.514 107.48 312.812 107.472 316.102L105.472 316.098C105.48 312.807 105.488 309.51 105.496 306.219L107.496 306.224ZM107.448 325.985C107.44 329.308 107.432 332.608 107.424 335.869L105.424 335.864C105.432 332.603 105.44 329.303 105.448 325.98L107.448 325.985ZM107.4 345.753C107.392 349.112 107.384 352.41 107.376 355.628L105.376 355.623C105.384 352.405 105.392 349.107 105.4 345.748L107.4 345.753ZM107.352 365.476C107.343 368.92 107.335 372.236 107.328 375.397L105.328 375.392C105.335 372.231 105.343 368.915 105.352 365.471L107.352 365.476ZM107.304 385.268C107.295 388.909 107.287 392.234 107.279 395.181L105.279 395.176C105.287 392.229 105.295 388.904 105.304 385.263L107.304 385.268ZM107.256 404.994C107.252 406.574 107.249 407.801 107.247 408.632C107.246 409.048 107.245 409.365 107.244 409.578C107.244 409.684 107.244 409.765 107.244 409.819C107.244 409.846 107.244 409.866 107.244 409.88C107.244 409.886 107.244 409.892 107.244 409.895C107.244 409.897 107.244 409.898 107.244 409.899C107.244 409.899 107.244 409.899 107.244 409.9C107.244 409.9 107.244 409.9 107.244 409.9C107.244 409.9 107.244 409.9 107.244 409.9C107.244 409.9 107.244 409.9 107.244 409.9C107.244 409.9 107.244 409.9 106.244 409.898C105.244 409.895 105.244 409.895 105.244 409.895C105.244 409.895 105.244 409.895 105.244 409.895C105.244 409.895 105.244 409.895 105.244 409.895C105.244 409.895 105.244 409.894 105.244 409.894C105.244 409.893 105.244 409.892 105.244 409.89C105.244 409.887 105.244 409.882 105.244 409.875C105.244 409.861 105.244 409.841 105.244 409.814C105.244 409.76 105.244 409.68 105.244 409.573C105.245 409.36 105.246 409.043 105.247 408.628C105.249 407.796 105.252 406.57 105.256 404.989L107.256 404.994Z" fill="#999999"/>
</svg>
