<svg width="1202" height="424" viewBox="0 0 1202 424" fill="none" xmlns="http://www.w3.org/2000/svg">
<path fill-rule="evenodd" clip-rule="evenodd" d="M614.252 195.017L611.603 200.648L622.53 206.611C623.192 204.955 623.523 202.967 624.848 200.98C632.795 187.067 653.987 191.705 656.636 205.286C661.603 204.623 669.55 202.967 673.854 201.311L674.185 198.33C672.861 197.667 668.225 196.011 666.569 195.349C661.603 193.692 645.046 185.742 644.053 185.411C642.728 186.405 641.735 187.73 639.417 188.061C633.126 188.724 628.821 181.768 631.47 176.468C632.795 173.818 636.106 171.168 640.41 172.824C644.053 174.149 645.708 176.799 645.708 181.105C648.358 183.093 672.199 194.355 675.841 194.686C676.503 193.692 677.165 193.361 677.497 192.036L670.212 181.768C667.563 182.43 662.927 185.742 656.636 180.443C650.675 175.474 652.331 168.849 651.669 167.855C650.344 167.193 637.43 162.224 635.444 161.893C634.781 164.874 630.146 167.855 625.841 168.186L622.53 176.468C625.51 177.793 627.497 184.417 625.51 189.055C623.523 193.361 620.212 195.349 614.252 195.017ZM695.377 166.862C697.033 170.836 696.702 173.486 699.02 173.818L697.364 166.53C696.702 166.53 696.371 166.53 695.377 166.862ZM693.059 177.13C693.722 175.474 694.053 175.143 695.708 173.818C695.377 172.493 694.715 170.836 694.053 169.511C693.391 167.193 693.722 166.53 691.404 166.199L690.41 176.799L693.059 177.13ZM620.212 107.237L622.199 107.569C622.861 104.587 626.172 99.95 626.503 97.9626C624.185 96.9688 620.212 96.3063 617.563 95.9751C618.887 99.95 619.55 102.931 620.212 107.237ZM650.675 240.398C651.338 247.354 661.934 246.692 661.271 239.404C660.609 232.448 650.013 233.11 650.675 240.398ZM625.51 280.147C628.821 280.147 646.371 274.516 649.02 271.866C648.358 271.535 642.066 269.547 641.735 269.547C640.742 269.879 640.41 270.872 638.093 270.541C636.437 270.541 635.775 269.879 634.45 269.547C633.126 271.535 627.165 277.829 625.51 280.147ZM689.417 188.724C693.722 190.38 694.384 192.699 694.715 197.999C696.371 197.999 697.695 197.999 698.358 197.005C701.007 194.024 700.344 190.711 700.344 185.742C697.033 185.742 695.708 186.074 694.053 183.424C692.397 180.774 694.053 179.449 690.079 179.449L689.417 188.724ZM684.781 240.398C686.106 238.41 687.43 236.092 688.755 234.104C690.742 230.129 690.41 230.129 691.735 226.486C689.748 227.811 688.093 227.479 686.768 225.823C685.775 226.486 684.45 227.479 683.457 228.142L680.146 230.461C679.152 231.454 679.152 232.448 678.49 234.435C677.828 235.76 677.165 236.754 676.834 237.748C678.821 239.073 681.801 240.398 684.781 240.398ZM624.185 131.75C624.516 133.406 624.848 136.387 625.179 138.374L626.172 143.343C628.49 143.674 629.152 144.337 631.139 145.331C633.457 143.674 635.775 141.687 637.761 140.031C637.43 138.706 634.119 135.393 633.126 134.068C631.801 132.743 629.814 129.762 628.159 128.768C626.834 129.431 625.841 131.418 624.185 131.75ZM672.861 179.118C673.523 181.105 678.49 188.061 680.146 190.049C682.795 189.055 683.126 188.392 686.768 188.392L687.43 178.786C685.775 178.124 676.834 176.468 674.185 176.136C673.854 177.461 673.523 178.124 672.861 179.118ZM689.086 164.874C687.099 163.549 686.106 162.887 685.112 161.562C682.463 162.224 675.841 165.537 674.185 166.862C674.516 169.18 675.179 169.843 675.179 172.824L687.761 175.805L689.086 164.874ZM634.45 147.981C634.45 148.312 636.106 151.624 636.437 152.287C637.099 154.274 637.099 155.93 637.099 157.918L652.993 164.212L654.98 161.562C653.656 159.574 641.404 144.006 640.41 143.012C638.424 144.337 636.106 146.987 634.45 147.981ZM640.742 137.381L651.007 130.425C650.013 129.762 649.682 129.1 648.689 127.775C648.026 126.45 648.026 125.456 647.364 124.131C644.384 123.137 634.119 120.818 630.477 120.487C630.477 121.812 630.477 122.475 630.146 123.8C629.814 125.125 629.814 124.793 630.808 126.118L640.742 137.381ZM679.483 228.142C690.742 221.848 684.45 223.504 689.748 216.548C695.046 209.261 695.046 215.223 698.689 203.63C696.702 201.642 697.695 201.311 697.033 200.317C694.053 200.98 694.384 199.986 693.059 202.636C690.41 207.936 686.768 209.592 681.47 211.248L675.51 224.829C676.503 225.492 676.834 225.492 677.828 226.154L679.152 227.811V228.142H679.483ZM643.391 140.693C643.722 141.687 646.04 144.337 646.702 145.331C648.026 146.987 649.351 148.312 650.675 149.968C651.669 151.624 652.993 153.28 654.318 154.937C655.311 156.262 656.636 158.58 657.96 159.574L661.271 158.912L659.616 136.387C652.331 134.4 657.96 130.093 643.391 140.693ZM663.589 137.712C662.927 139.368 664.583 156.262 664.914 159.243C667.563 161.23 667.232 159.574 671.867 163.88C674.185 163.218 678.821 159.905 683.126 158.912C682.132 154.605 681.47 155.268 677.497 153.943C676.172 154.605 675.841 155.599 674.185 155.599C672.861 155.599 671.536 154.937 670.543 154.274C664.252 149.306 670.212 143.674 675.179 148.974C676.172 149.968 676.503 150.962 677.828 151.624C678.821 151.955 680.477 152.618 681.47 152.949L682.795 149.968C680.808 148.312 671.867 138.706 670.543 137.712C669.55 137.049 669.218 137.712 667.894 137.712C666.238 138.043 664.914 137.712 663.589 137.712ZM629.483 211.58C631.801 225.492 652.331 221.848 650.344 208.267C648.026 195.017 627.165 197.999 629.483 211.58ZM625.841 109.887C627.497 112.537 628.821 112.869 630.146 117.175C636.437 118.169 641.735 120.156 647.695 121.481C650.013 113.531 663.92 119.162 670.212 127.112C672.53 129.762 672.861 131.75 671.867 136.056L682.463 146.987C684.119 148.974 683.457 148.974 687.43 148.974C687.099 146.656 684.781 140.031 683.788 137.712C681.801 131.418 666.569 116.181 662.596 114.525C658.291 120.156 638.755 109.225 644.384 103.925C641.404 102.269 635.112 99.95 631.139 99.2875C629.483 102.6 627.497 105.912 625.841 109.887ZM666.569 212.242C672.199 210.255 671.867 218.204 667.232 219.529C664.914 220.192 663.258 218.867 663.258 216.548C663.589 214.561 665.245 212.573 666.569 212.242ZM663.258 229.136C664.583 227.811 666.238 226.817 668.556 225.823C672.199 224.498 671.867 226.154 673.523 222.511C674.848 219.861 678.49 212.905 678.821 210.586C673.854 207.273 676.172 207.936 674.185 204.955L657.629 208.93C656.967 223.836 647.033 225.492 645.377 227.148C647.364 228.473 649.351 230.461 651.669 231.786C654.318 231.123 655.973 230.129 658.954 231.454C665.907 234.104 666.901 243.379 660.94 247.354C655.642 251.329 653.656 247.023 651.669 249.341L642.728 259.941C642.397 260.604 642.397 260.273 642.066 260.935C643.391 263.254 643.059 263.254 643.722 266.235C645.708 266.897 651.669 269.879 653.656 269.547C656.636 269.216 672.53 256.298 675.51 252.323C673.854 252.654 671.867 253.979 670.212 254.641C666.901 255.966 668.225 255.635 666.238 257.623C664.583 259.61 660.278 263.254 656.305 262.591C651.338 261.598 656.305 253.316 663.589 251.329C666.901 250.666 666.901 251.329 668.556 252.985C671.536 251.991 673.854 250.666 676.172 249.341C677.497 248.679 679.152 248.017 679.814 247.023C680.808 246.029 681.801 244.704 682.132 243.71C681.47 243.379 679.152 243.048 677.828 242.717C676.503 242.054 675.51 241.723 674.185 241.06C671.867 242.054 670.874 244.042 667.563 245.035C669.881 235.76 667.563 234.435 663.258 229.136Z" fill="white"/>
<path fill-rule="evenodd" clip-rule="evenodd" d="M519.218 200.317L568.556 182.43L608.953 198.992L625.841 161.23C625.178 156.924 615.907 97.6312 614.251 95.975C583.788 89.0188 553.986 98.6249 531.47 120.487C528.49 123.468 525.178 127.112 522.529 130.756C510.94 145.993 504.98 163.218 503.655 183.092C503.324 187.067 504.649 187.067 509.616 191.705C511.271 193.03 517.563 200.317 519.218 200.317Z" fill="white"/>
<path fill-rule="evenodd" clip-rule="evenodd" d="M510.94 240.729C515.245 241.06 520.212 241.723 524.516 242.054C526.172 242.054 536.437 242.716 537.761 243.71C534.781 245.698 523.523 257.954 521.536 259.61V248.679C520.874 248.016 520.212 247.685 519.549 247.022V263.585C519.549 264.578 519.218 264.578 519.88 265.241C521.205 265.572 521.867 266.566 523.192 266.235C524.516 265.903 524.847 264.91 526.834 265.241L548.357 269.878C548.688 269.878 548.688 269.878 549.02 270.21L523.854 271.203C522.198 272.528 521.536 271.866 521.205 274.516C520.874 276.503 520.543 278.16 520.543 280.147L525.178 282.797C528.49 283.128 536.768 279.816 540.41 279.816C539.748 280.478 539.086 281.141 538.424 281.803C529.814 289.753 534.781 289.091 524.847 288.428C525.178 292.072 524.185 295.384 525.841 298.365C530.808 306.315 542.397 306.315 550.675 303.997C554.318 303.003 553.655 302.672 556.967 299.028C558.953 296.709 571.536 282.134 572.198 280.809C571.205 278.491 566.9 272.86 565.245 270.541L545.377 240.729H545.046L532.794 222.179C531.801 220.523 521.536 204.623 520.212 203.629C519.549 209.261 510.278 238.741 510.94 240.729Z" fill="white"/>
<path fill-rule="evenodd" clip-rule="evenodd" d="M575.179 277.497L619.55 223.173C622.53 219.529 620.212 214.892 620.874 210.586L608.291 203.961L572.199 214.23L538.093 223.836L575.179 277.497Z" fill="white"/>
<circle cx="601" cy="199" r="181" stroke="#999999" stroke-width="2"/>
<circle cx="601" cy="199" r="198" stroke="#999999" stroke-width="2"/>
<path d="M817.393 185.61C816.447 186.739 816.597 188.421 817.726 189.366C818.855 190.312 820.537 190.162 821.482 189.033C822.428 187.904 822.278 186.222 821.149 185.276C820.02 184.331 818.338 184.48 817.393 185.61ZM1059.94 187.321L1059.94 186.821L1059.94 186.821L1059.94 187.321ZM1086.94 194.822L1087.29 194.468L1087.29 194.468L1086.94 194.822ZM1095.44 220.821L1095.94 220.832L1095.94 220.821L1095.44 220.821ZM1095.44 220.821L1094.94 220.81L1094.94 220.821L1095.44 220.821ZM1095.08 418.675C1095.28 418.87 1095.6 418.87 1095.79 418.675L1098.97 415.493C1099.17 415.298 1099.17 414.981 1098.97 414.786C1098.78 414.591 1098.46 414.591 1098.27 414.786L1095.44 417.614L1092.61 414.786C1092.41 414.591 1092.1 414.591 1091.9 414.786C1091.71 414.981 1091.71 415.298 1091.9 415.493L1095.08 418.675ZM819.438 187.821L824.448 187.821L824.448 186.821L819.438 186.821L819.438 187.821ZM834.469 187.821L844.49 187.821L844.49 186.821L834.469 186.821L834.469 187.821ZM854.511 187.821L864.531 187.821L864.531 186.821L854.511 186.821L854.511 187.821ZM874.552 187.821L884.573 187.821L884.573 186.821L874.552 186.821L874.552 187.821ZM894.594 187.821L904.615 187.821L904.615 186.821L894.594 186.821L894.594 187.821ZM914.636 187.821L924.657 187.821L924.657 186.821L914.636 186.821L914.636 187.821ZM934.677 187.821L944.698 187.821L944.698 186.821L934.677 186.821L934.677 187.821ZM954.719 187.821L964.74 187.821L964.74 186.821L954.719 186.821L954.719 187.821ZM974.761 187.821L984.782 187.821L984.782 186.821L974.761 186.821L974.761 187.821ZM994.803 187.821L1004.82 187.821L1004.82 186.821L994.803 186.821L994.803 187.821ZM1014.84 187.821L1024.87 187.821L1024.87 186.821L1014.84 186.821L1014.84 187.821ZM1034.89 187.821L1044.91 187.821L1044.91 186.821L1034.89 186.821L1034.89 187.821ZM1054.93 187.821L1059.94 187.821L1059.94 186.821L1054.93 186.821L1054.93 187.821ZM1059.94 187.821C1062.04 187.821 1064.48 187.733 1067.15 187.831L1067.18 186.832C1064.5 186.733 1061.99 186.821 1059.94 186.821L1059.94 187.821ZM1080.9 191.005C1082.88 192.035 1084.8 193.391 1086.58 195.175L1087.29 194.468C1085.43 192.608 1083.43 191.193 1081.36 190.118L1080.9 191.005ZM1086.58 195.175C1088.38 196.969 1089.79 198.782 1090.89 200.603L1091.74 200.085C1090.6 198.192 1089.14 196.316 1087.29 194.468L1086.58 195.175ZM1094.77 213.799C1094.94 216.154 1094.94 218.496 1094.94 220.821L1095.94 220.821C1095.94 218.502 1095.94 216.124 1095.76 213.726L1094.77 213.799ZM1094.94 220.81L1094.94 220.81L1095.94 220.832L1095.94 220.832L1094.94 220.81ZM1094.94 220.81L1094.94 220.81L1095.94 220.833L1095.94 220.832L1094.94 220.81ZM1094.94 220.821C1094.94 221.461 1094.94 223.124 1094.94 225.651L1095.94 225.651C1095.94 223.124 1095.94 221.461 1095.94 220.822L1094.94 220.821ZM1094.94 235.574C1094.94 238.513 1094.94 241.819 1094.94 245.432L1095.94 245.432C1095.94 241.819 1095.94 238.513 1095.94 235.574L1094.94 235.574ZM1094.94 255.38C1094.94 258.515 1094.94 261.801 1094.94 265.212L1095.94 265.212C1095.94 261.801 1095.94 258.515 1095.94 255.38L1094.94 255.38ZM1094.94 275.092C1094.94 278.316 1094.94 281.62 1094.94 284.984L1095.94 284.984C1095.94 281.62 1095.94 278.316 1095.94 275.092L1094.94 275.092ZM1094.94 294.875C1094.94 298.136 1094.94 301.436 1094.94 304.759L1095.94 304.759C1095.94 301.436 1095.94 298.136 1095.94 294.875L1094.94 294.875ZM1094.94 314.633C1094.94 317.924 1094.94 321.222 1094.94 324.513L1095.94 324.513C1095.94 321.222 1095.94 317.924 1095.94 314.633L1094.94 314.633ZM1094.94 334.396C1094.94 337.72 1094.94 341.02 1094.94 344.282L1095.94 344.282C1095.94 341.02 1095.94 337.72 1095.94 334.396L1094.94 334.396ZM1094.94 354.167C1094.94 357.526 1094.94 360.824 1094.94 364.043L1095.94 364.043C1095.94 360.824 1095.94 357.526 1095.94 354.167L1094.94 354.167ZM1094.94 373.892C1094.94 377.337 1094.94 380.653 1094.94 383.814L1095.94 383.814C1095.94 380.653 1095.94 377.337 1095.94 373.892L1094.94 373.892ZM1094.94 393.686C1094.94 397.328 1094.94 400.653 1094.94 403.601L1095.94 403.601C1095.94 400.653 1095.94 397.328 1095.94 393.686L1094.94 393.686ZM1094.94 413.414C1094.94 414.995 1094.94 416.222 1094.94 417.054C1094.94 417.469 1094.94 417.786 1094.94 417.999C1094.94 418.106 1094.94 418.186 1094.94 418.24C1094.94 418.267 1094.94 418.287 1094.94 418.301C1094.94 418.308 1094.94 418.313 1094.94 418.316C1094.94 418.318 1094.94 418.319 1094.94 418.32C1094.94 418.321 1094.94 418.321 1094.94 418.321C1094.94 418.321 1094.94 418.321 1094.94 418.321C1094.94 418.321 1094.94 418.321 1094.94 418.321C1094.94 418.321 1094.94 418.321 1095.44 418.321C1095.94 418.321 1095.94 418.321 1095.94 418.321C1095.94 418.321 1095.94 418.321 1095.94 418.321C1095.94 418.321 1095.94 418.321 1095.94 418.321C1095.94 418.321 1095.94 418.321 1095.94 418.32C1095.94 418.319 1095.94 418.318 1095.94 418.316C1095.94 418.313 1095.94 418.308 1095.94 418.301C1095.94 418.287 1095.94 418.267 1095.94 418.24C1095.94 418.186 1095.94 418.106 1095.94 417.999C1095.94 417.786 1095.94 417.469 1095.94 417.054C1095.94 416.222 1095.94 414.995 1095.94 413.414L1094.94 413.414ZM815.348 183.898C813.457 186.157 813.756 189.521 816.014 191.411C818.273 193.302 821.637 193.003 823.527 190.744C825.418 188.486 825.119 185.122 822.861 183.232C820.602 181.341 817.238 181.64 815.348 183.898ZM1059.94 187.321L1059.94 186.321L1059.94 186.321L1059.94 187.321ZM1086.94 194.822L1087.65 194.114L1087.65 194.114L1086.94 194.822ZM1095.44 220.821L1096.44 220.843L1096.44 220.832L1096.44 220.821L1095.44 220.821ZM1095.44 220.821L1094.44 220.799L1094.44 220.81L1094.44 220.821L1095.44 220.821ZM1094.73 419.029C1095.12 419.419 1095.75 419.419 1096.14 419.029L1102.51 412.665C1102.9 412.274 1102.9 411.641 1102.51 411.25C1102.12 410.86 1101.48 410.86 1101.09 411.25L1095.44 416.907L1089.78 411.25C1089.39 410.86 1088.76 410.86 1088.37 411.25C1087.98 411.641 1087.98 412.274 1088.37 412.665L1094.73 419.029ZM819.438 188.321L824.448 188.321L824.448 186.321L819.438 186.321L819.438 188.321ZM834.469 188.321L844.49 188.321L844.49 186.321L834.469 186.321L834.469 188.321ZM854.511 188.321L864.531 188.321L864.531 186.321L854.511 186.321L854.511 188.321ZM874.552 188.321L884.573 188.321L884.573 186.321L874.552 186.321L874.552 188.321ZM894.594 188.321L904.615 188.321L904.615 186.321L894.594 186.321L894.594 188.321ZM914.636 188.321L924.657 188.321L924.657 186.321L914.636 186.321L914.636 188.321ZM934.677 188.321L944.698 188.321L944.698 186.321L934.677 186.321L934.677 188.321ZM954.719 188.321L964.74 188.321L964.74 186.321L954.719 186.321L954.719 188.321ZM974.761 188.321L984.782 188.321L984.782 186.321L974.761 186.321L974.761 188.321ZM994.803 188.321L1004.82 188.321L1004.82 186.321L994.803 186.321L994.803 188.321ZM1014.84 188.321L1024.87 188.321L1024.87 186.321L1014.84 186.321L1014.84 188.321ZM1034.89 188.321L1044.91 188.321L1044.91 186.321L1034.89 186.321L1034.89 188.321ZM1054.93 188.321L1059.94 188.321L1059.94 186.321L1054.93 186.321L1054.93 188.321ZM1059.94 188.321C1062.06 188.321 1064.48 188.233 1067.13 188.331L1067.2 186.332C1064.5 186.233 1061.97 186.321 1059.94 186.321L1059.94 188.321ZM1080.67 191.449C1082.61 192.457 1084.48 193.783 1086.23 195.529L1087.65 194.114C1085.75 192.217 1083.7 190.772 1081.59 189.674L1080.67 191.449ZM1086.23 195.529C1088 197.296 1089.38 199.077 1090.46 200.862L1092.17 199.827C1091 197.897 1089.52 195.99 1087.65 194.114L1086.23 195.529ZM1094.27 213.835C1094.44 216.169 1094.44 218.493 1094.44 220.821L1096.44 220.821C1096.44 218.504 1096.44 216.108 1096.26 213.69L1094.27 213.835ZM1094.44 220.799L1094.44 220.799L1096.44 220.843L1096.44 220.843L1094.44 220.799ZM1094.44 220.799L1094.44 220.799L1096.44 220.844L1096.44 220.843L1094.44 220.799ZM1094.44 220.821C1094.44 221.461 1094.44 223.124 1094.44 225.651L1096.44 225.651C1096.44 223.124 1096.44 221.461 1096.44 220.822L1094.44 220.821ZM1094.44 235.574C1094.44 238.513 1094.44 241.819 1094.44 245.432L1096.44 245.432C1096.44 241.819 1096.44 238.513 1096.44 235.574L1094.44 235.574ZM1094.44 255.38C1094.44 258.515 1094.44 261.801 1094.44 265.212L1096.44 265.212C1096.44 261.801 1096.44 258.515 1096.44 255.38L1094.44 255.38ZM1094.44 275.092C1094.44 278.316 1094.44 281.62 1094.44 284.984L1096.44 284.984C1096.44 281.62 1096.44 278.316 1096.44 275.092L1094.44 275.092ZM1094.44 294.875C1094.44 298.136 1094.44 301.436 1094.44 304.759L1096.44 304.759C1096.44 301.436 1096.44 298.136 1096.44 294.875L1094.44 294.875ZM1094.44 314.633C1094.44 317.924 1094.44 321.222 1094.44 324.513L1096.44 324.513C1096.44 321.222 1096.44 317.924 1096.44 314.633L1094.44 314.633ZM1094.44 334.396C1094.44 337.72 1094.44 341.02 1094.44 344.282L1096.44 344.282C1096.44 341.02 1096.44 337.72 1096.44 334.396L1094.44 334.396ZM1094.44 354.167C1094.44 357.526 1094.44 360.824 1094.44 364.043L1096.44 364.043C1096.44 360.824 1096.44 357.526 1096.44 354.167L1094.44 354.167ZM1094.44 373.892C1094.44 377.337 1094.44 380.653 1094.44 383.814L1096.44 383.814C1096.44 380.653 1096.44 377.337 1096.44 373.892L1094.44 373.892ZM1094.44 393.686C1094.44 397.328 1094.44 400.653 1094.44 403.601L1096.44 403.601C1096.44 400.653 1096.44 397.328 1096.44 393.686L1094.44 393.686ZM1094.44 413.414C1094.44 414.995 1094.44 416.222 1094.44 417.054C1094.44 417.469 1094.44 417.786 1094.44 417.999C1094.44 418.106 1094.44 418.186 1094.44 418.24C1094.44 418.267 1094.44 418.287 1094.44 418.301C1094.44 418.308 1094.44 418.313 1094.44 418.316C1094.44 418.318 1094.44 418.319 1094.44 418.32C1094.44 418.321 1094.44 418.321 1094.44 418.321C1094.44 418.321 1094.44 418.321 1094.44 418.321C1094.44 418.321 1094.44 418.321 1094.44 418.321C1094.44 418.321 1094.44 418.321 1095.44 418.321C1096.44 418.321 1096.44 418.321 1096.44 418.321C1096.44 418.321 1096.44 418.321 1096.44 418.321C1096.44 418.321 1096.44 418.321 1096.44 418.321C1096.44 418.321 1096.44 418.321 1096.44 418.32C1096.44 418.319 1096.44 418.318 1096.44 418.316C1096.44 418.313 1096.44 418.308 1096.44 418.301C1096.44 418.287 1096.44 418.267 1096.44 418.24C1096.44 418.186 1096.44 418.106 1096.44 417.999C1096.44 417.786 1096.44 417.469 1096.44 417.054C1096.44 416.222 1096.44 414.995 1096.44 413.414L1094.44 413.414Z" fill="#E6E6E6"/>
<path d="M383.137 187.194C383.332 187.39 383.331 187.707 383.136 187.902L379.946 191.076C379.751 191.271 379.434 191.27 379.239 191.075C379.044 190.879 379.045 190.562 379.241 190.368L382.076 187.546L379.254 184.711C379.059 184.515 379.06 184.198 379.255 184.004C379.451 183.809 379.767 183.81 379.962 184.005L383.137 187.194ZM142.302 187.004L142.303 186.504L142.303 186.504L142.302 187.004ZM115.286 194.443L114.933 194.088L114.933 194.088L115.286 194.443ZM106.724 220.42L107.224 220.421L107.224 220.435L106.724 220.42ZM106.724 220.42L106.224 220.419L106.224 220.405L106.724 220.42ZM108.293 416.191C109.235 417.322 109.082 419.004 107.95 419.947C106.819 420.889 105.137 420.736 104.195 419.604C103.252 418.473 103.405 416.791 104.537 415.849C105.668 414.906 107.35 415.059 108.293 416.191ZM382.782 188.047L377.772 188.036L377.774 187.036L382.784 187.047L382.782 188.047ZM367.752 188.013L357.732 187.991L357.734 186.991L367.754 187.013L367.752 188.013ZM347.712 187.968L337.692 187.945L337.694 186.945L347.714 186.968L347.712 187.968ZM327.671 187.923L317.651 187.9L317.654 186.9L327.674 186.923L327.671 187.923ZM307.631 187.878L297.611 187.855L297.614 186.855L307.634 186.878L307.631 187.878ZM287.591 187.832L277.571 187.81L277.574 186.81L287.594 186.832L287.591 187.832ZM267.551 187.787L257.531 187.764L257.534 186.764L267.554 186.787L267.551 187.787ZM247.511 187.742L237.491 187.719L237.494 186.719L247.514 186.742L247.511 187.742ZM227.471 187.697L217.451 187.674L217.453 186.674L227.474 186.697L227.471 187.697ZM207.431 187.651L197.411 187.629L197.413 186.629L207.433 186.651L207.431 187.651ZM187.391 187.606L177.371 187.583L177.373 186.583L187.393 186.606L187.391 187.606ZM167.351 187.561L157.331 187.538L157.333 186.538L167.353 186.561L167.351 187.561ZM147.311 187.516L142.301 187.504L142.303 186.504L147.313 186.516L147.311 187.516ZM142.301 187.504C140.199 187.5 137.757 187.406 135.094 187.498L135.059 186.499C137.745 186.406 140.25 186.5 142.303 186.504L142.301 187.504ZM121.331 190.641C119.348 191.666 117.427 193.017 115.639 194.797L114.933 194.088C116.798 192.233 118.803 190.822 120.872 189.752L121.331 190.641ZM115.639 194.797C113.84 196.587 112.43 198.396 111.323 200.215L110.469 199.695C111.62 197.804 113.08 195.932 114.933 194.088L115.639 194.797ZM107.413 213.4C107.235 215.755 107.23 218.096 107.224 220.421L106.224 220.419C106.23 218.099 106.235 215.722 106.416 213.325L107.413 213.4ZM107.224 220.435L107.224 220.435L106.225 220.405L106.225 220.405L107.224 220.435ZM107.224 220.436L107.224 220.436L106.224 220.405L106.225 220.405L107.224 220.436ZM107.224 220.422C107.223 221.061 107.219 222.724 107.213 225.251L106.213 225.249C106.219 222.721 106.223 221.059 106.224 220.419L107.224 220.422ZM107.189 235.172C107.181 238.111 107.173 241.417 107.165 245.029L106.165 245.027C106.173 241.414 106.181 238.109 106.189 235.17L107.189 235.172ZM107.14 254.976C107.133 258.111 107.125 261.397 107.117 264.807L106.117 264.805C106.125 261.395 106.133 258.109 106.14 254.974L107.14 254.976ZM107.093 274.686C107.085 277.91 107.077 281.213 107.068 284.577L106.068 284.574C106.077 281.21 106.085 277.907 106.093 274.683L107.093 274.686ZM107.044 294.466C107.036 297.728 107.028 301.027 107.02 304.349L106.02 304.347C106.028 301.025 106.036 297.725 106.044 294.464L107.044 294.466ZM106.996 314.222C106.988 317.513 106.98 320.811 106.972 324.101L105.972 324.099C105.98 320.809 105.988 317.511 105.996 314.22L106.996 314.222ZM106.948 333.984C106.94 337.307 106.932 340.607 106.924 343.868L105.924 343.865C105.932 340.604 105.94 337.304 105.948 333.981L106.948 333.984ZM106.9 353.751C106.892 357.11 106.884 360.408 106.876 363.626L105.876 363.624C105.884 360.406 105.892 357.108 105.9 353.749L106.9 353.751ZM106.852 373.475C106.843 376.919 106.835 380.235 106.828 383.395L105.828 383.393C105.835 380.232 105.843 376.916 105.852 373.472L106.852 373.475ZM106.804 393.267C106.795 396.908 106.787 400.233 106.779 403.18L105.779 403.177C105.787 400.23 105.795 396.906 105.804 393.264L106.804 393.267ZM106.756 412.992C106.752 414.573 106.749 415.8 106.747 416.631C106.746 417.047 106.745 417.364 106.744 417.577C106.744 417.683 106.744 417.764 106.744 417.818C106.744 417.845 106.744 417.865 106.744 417.878C106.744 417.885 106.744 417.89 106.744 417.894C106.744 417.895 106.744 417.897 106.744 417.898C106.744 417.898 106.744 417.898 106.744 417.898C106.744 417.899 106.744 417.899 106.744 417.899C106.744 417.899 106.744 417.899 106.744 417.899C106.744 417.899 106.744 417.899 106.744 417.899C106.744 417.899 106.744 417.899 106.244 417.898C105.744 417.896 105.744 417.896 105.744 417.896C105.744 417.896 105.744 417.896 105.744 417.896C105.744 417.896 105.744 417.896 105.744 417.896C105.744 417.896 105.744 417.896 105.744 417.895C105.744 417.894 105.744 417.893 105.744 417.891C105.744 417.888 105.744 417.883 105.744 417.876C105.744 417.862 105.744 417.842 105.744 417.815C105.744 417.761 105.744 417.681 105.744 417.574C105.745 417.361 105.746 417.044 105.747 416.629C105.749 415.797 105.752 414.571 105.756 412.99L106.756 412.992ZM383.491 186.842C383.881 187.233 383.88 187.866 383.488 188.256L377.11 194.605C376.719 194.995 376.085 194.994 375.696 194.602C375.306 194.211 375.308 193.578 375.699 193.188L381.369 187.544L375.724 181.874C375.335 181.483 375.336 180.85 375.728 180.46C376.119 180.071 376.752 180.072 377.142 180.463L383.491 186.842ZM142.302 187.004L142.304 186.004L142.304 186.004L142.302 187.004ZM115.286 194.443L114.581 193.734L114.581 193.734L115.286 194.443ZM106.724 220.42L107.724 220.422L107.724 220.437L107.724 220.451L106.724 220.42ZM106.724 220.42L105.724 220.418L105.724 220.404L105.725 220.39L106.724 220.42ZM110.341 414.484C112.227 416.747 111.92 420.11 109.657 421.995C107.394 423.881 104.031 423.574 102.146 421.311C100.26 419.048 100.567 415.685 102.83 413.8C105.093 411.914 108.456 412.221 110.341 414.484ZM382.78 188.547L377.77 188.536L377.775 186.536L382.785 186.547L382.78 188.547ZM367.75 188.513L357.73 188.491L357.735 186.491L367.755 186.513L367.75 188.513ZM347.71 188.468L337.69 188.445L337.695 186.445L347.715 186.468L347.71 188.468ZM327.67 188.423L317.65 188.4L317.655 186.4L327.675 186.423L327.67 188.423ZM307.63 188.378L297.61 188.355L297.615 186.355L307.635 186.378L307.63 188.378ZM287.59 188.332L277.57 188.31L277.575 186.31L287.595 186.332L287.59 188.332ZM267.55 188.287L257.53 188.264L257.535 186.264L267.555 186.287L267.55 188.287ZM247.51 188.242L237.49 188.219L237.495 186.219L247.515 186.242L247.51 188.242ZM227.47 188.197L217.45 188.174L217.455 186.174L227.475 186.197L227.47 188.197ZM207.43 188.151L197.41 188.129L197.415 186.129L207.435 186.151L207.43 188.151ZM187.39 188.106L177.37 188.083L177.374 186.083L187.395 186.106L187.39 188.106ZM167.35 188.061L157.33 188.038L157.334 186.038L167.354 186.061L167.35 188.061ZM147.31 188.016L142.3 188.004L142.304 186.004L147.314 186.016L147.31 188.016ZM142.3 188.004C140.174 188 137.763 187.906 135.111 187.998L135.042 185.999C137.739 185.906 140.275 186 142.304 186.004L142.3 188.004ZM121.561 191.085C119.621 192.088 117.742 193.41 115.991 195.152L114.581 193.734C116.483 191.841 118.53 190.4 120.643 189.308L121.561 191.085ZM115.991 195.152C114.22 196.914 112.835 198.692 111.75 200.475L110.042 199.435C111.214 197.509 112.701 195.605 114.581 193.734L115.991 195.152ZM107.911 213.437C107.736 215.771 107.73 218.094 107.724 220.422L105.724 220.418C105.73 218.101 105.735 215.705 105.917 213.287L107.911 213.437ZM107.724 220.451L107.724 220.451L105.725 220.39L105.725 220.389L107.724 220.451ZM107.724 220.451L107.724 220.451L105.725 220.39L105.725 220.39L107.724 220.451ZM107.724 220.423C107.723 221.063 107.719 222.725 107.713 225.252L105.713 225.247C105.719 222.72 105.723 221.058 105.724 220.418L107.724 220.423ZM107.689 235.174C107.681 238.113 107.673 241.418 107.665 245.031L105.665 245.026C105.673 241.413 105.681 238.108 105.689 235.169L107.689 235.174ZM107.64 254.978C107.633 258.113 107.625 261.398 107.617 264.808L105.617 264.803C105.625 261.393 105.633 258.108 105.64 254.973L107.64 254.978ZM107.593 274.687C107.585 277.911 107.577 281.214 107.568 284.578L105.568 284.573C105.577 281.209 105.585 277.906 105.593 274.682L107.593 274.687ZM107.544 294.468C107.536 297.729 107.528 301.028 107.52 304.35L105.52 304.345C105.528 301.023 105.536 297.724 105.544 294.463L107.544 294.468ZM107.496 314.224C107.488 317.514 107.48 320.812 107.472 324.102L105.472 324.098C105.48 320.807 105.488 317.51 105.496 314.219L107.496 314.224ZM107.448 333.985C107.44 337.308 107.432 340.608 107.424 343.869L105.424 343.864C105.432 340.603 105.44 337.303 105.448 333.98L107.448 333.985ZM107.4 353.753C107.392 357.112 107.384 360.41 107.376 363.628L105.376 363.623C105.384 360.405 105.392 357.107 105.4 353.748L107.4 353.753ZM107.352 373.476C107.343 376.92 107.335 380.236 107.328 383.397L105.328 383.392C105.335 380.231 105.343 376.915 105.352 373.471L107.352 373.476ZM107.304 393.268C107.295 396.909 107.287 400.234 107.279 403.181L105.279 403.176C105.287 400.229 105.295 396.904 105.304 393.263L107.304 393.268ZM107.256 412.994C107.252 414.574 107.249 415.801 107.247 416.632C107.246 417.048 107.245 417.365 107.244 417.578C107.244 417.684 107.244 417.765 107.244 417.819C107.244 417.846 107.244 417.866 107.244 417.88C107.244 417.886 107.244 417.892 107.244 417.895C107.244 417.897 107.244 417.898 107.244 417.899C107.244 417.899 107.244 417.899 107.244 417.9C107.244 417.9 107.244 417.9 107.244 417.9C107.244 417.9 107.244 417.9 107.244 417.9C107.244 417.9 107.244 417.9 107.244 417.9C107.244 417.9 107.244 417.9 106.244 417.898C105.244 417.895 105.244 417.895 105.244 417.895C105.244 417.895 105.244 417.895 105.244 417.895C105.244 417.895 105.244 417.895 105.244 417.895C105.244 417.895 105.244 417.894 105.244 417.894C105.244 417.893 105.244 417.892 105.244 417.89C105.244 417.887 105.244 417.882 105.244 417.875C105.244 417.861 105.244 417.841 105.244 417.814C105.244 417.76 105.244 417.68 105.244 417.573C105.245 417.36 105.246 417.043 105.247 416.628C105.249 415.796 105.252 414.57 105.256 412.989L107.256 412.994Z" fill="#E6E6E6"/>
</svg>
