<svg width="24" height="1139" viewBox="0 0 24 1139" fill="none" xmlns="http://www.w3.org/2000/svg">
<path d="M12 0C7.58172 1.93129e-07 4 3.58172 4 8C4 12.4183 7.58172 16 12 16C16.4183 16 20 12.4183 20 8C20 3.58172 16.4183 -1.93129e-07 12 0ZM10.9394 1138.06C11.5252 1138.65 12.4749 1138.65 13.0607 1138.06L22.6067 1128.51C23.1924 1127.93 23.1924 1126.98 22.6067 1126.39C22.0209 1125.81 21.0711 1125.81 20.4853 1126.39L12 1134.88L3.51477 1126.39C2.92898 1125.81 1.97923 1125.81 1.39345 1126.39C0.807661 1126.98 0.807661 1127.93 1.39345 1128.51L10.9394 1138.06ZM10.5 8L10.5 11.0027L13.5 11.0027L13.5 8L10.5 8ZM10.5 17.008L10.5 23.0133L13.5 23.0133L13.5 17.008L10.5 17.008ZM10.5 29.0186L10.5 35.0239L13.5 35.0239L13.5 29.0186L10.5 29.0186ZM10.5 41.0293L10.5 47.0346L13.5 47.0346L13.5 41.0293L10.5 41.0293ZM10.5 53.0399L10.5 59.0452L13.5 59.0452L13.5 53.0399L10.5 53.0399ZM10.5 65.0505L10.5 71.0558L13.5 71.0558L13.5 65.0505L10.5 65.0505ZM10.5 77.0612L10.5 83.0665L13.5 83.0665L13.5 77.0612L10.5 77.0612ZM10.5 89.0718L10.5 95.0771L13.5 95.0771L13.5 89.0718L10.5 89.0718ZM10.5 101.082L10.5 107.088L13.5 107.088L13.5 101.082L10.5 101.082ZM10.5 113.093L10.5 119.098L13.5 119.098L13.5 113.093L10.5 113.093ZM10.5 125.104L10.5 131.109L13.5 131.109L13.5 125.104L10.5 125.104ZM10.5 137.114L10.5 143.12L13.5 143.12L13.5 137.114L10.5 137.114ZM10.5 149.125L10.5 155.13L13.5 155.13L13.5 149.125L10.5 149.125ZM10.5 161.136L10.5 167.141L13.5 167.141L13.5 161.136L10.5 161.136ZM10.5 173.146L10.5 179.152L13.5 179.152L13.5 173.146L10.5 173.146ZM10.5 185.157L10.5 191.162L13.5 191.162L13.5 185.157L10.5 185.157ZM10.5 197.168L10.5 203.173L13.5 203.173L13.5 197.168L10.5 197.168ZM10.5 209.178L10.5 215.184L13.5 215.184L13.5 209.178L10.5 209.178ZM10.5 221.189L10.5 227.194L13.5 227.194L13.5 221.189L10.5 221.189ZM10.5 233.2L10.5 239.205L13.5 239.205L13.5 233.2L10.5 233.2ZM10.5 245.21L10.5 251.216L13.5 251.216L13.5 245.21L10.5 245.21ZM10.5 257.221L10.5 263.226L13.5 263.226L13.5 257.221L10.5 257.221ZM10.5 269.231L10.5 275.237L13.5 275.237L13.5 269.231L10.5 269.231ZM10.5 281.242L10.5 287.247L13.5 287.247L13.5 281.242L10.5 281.242ZM10.5 293.253L10.5 299.258L13.5 299.258L13.5 293.253L10.5 293.253ZM10.5 305.263L10.5 311.269L13.5 311.269L13.5 305.263L10.5 305.263ZM10.5 317.274L10.5 323.279L13.5 323.279L13.5 317.274L10.5 317.274ZM10.5 329.285L10.5 335.29L13.5 335.29L13.5 329.285L10.5 329.285ZM10.5 341.295L10.5 347.301L13.5 347.301L13.5 341.295L10.5 341.295ZM10.5 353.306L10.5 359.311L13.5 359.311L13.5 353.306L10.5 353.306ZM10.5 365.316L10.5 371.322L13.5 371.322L13.5 365.316L10.5 365.316ZM10.5 377.327L10.5 383.332L13.5 383.332L13.5 377.327L10.5 377.327ZM10.5 389.338L10.5 395.343L13.5 395.343L13.5 389.338L10.5 389.338ZM10.5 401.348L10.5 407.354L13.5 407.354L13.5 401.348L10.5 401.348ZM10.5 413.359L10.5 419.364L13.5 419.364L13.5 413.359L10.5 413.359ZM10.5 425.37L10.5 431.375L13.5 431.375L13.5 425.37L10.5 425.37ZM10.5 437.38L10.5 443.385L13.5 443.385L13.5 437.38L10.5 437.38ZM10.5 449.391L10.5 455.396L13.5 455.396L13.5 449.391L10.5 449.391ZM10.5 461.401L10.5 467.407L13.5 467.407L13.5 461.401L10.5 461.401ZM10.5 473.412L10.5 479.417L13.5 479.417L13.5 473.412L10.5 473.412ZM10.5 485.423L10.5 491.428L13.5 491.428L13.5 485.423L10.5 485.423ZM10.5 497.433L10.5 503.439L13.5 503.439L13.5 497.433L10.5 497.433ZM10.5 509.444L10.5 515.449L13.5 515.449L13.5 509.444L10.5 509.444ZM10.5 521.455L10.5 527.46L13.5 527.46L13.5 521.455L10.5 521.455ZM10.5 533.465L10.5 539.47L13.5 539.47L13.5 533.465L10.5 533.465ZM10.5 545.476L10.5 551.481L13.5 551.481L13.5 545.476L10.5 545.476ZM10.5 557.486L10.5 563.492L13.5 563.492L13.5 557.486L10.5 557.486ZM10.5 569.497L10.5 575.502L13.5 575.502L13.5 569.497L10.5 569.497ZM10.5 581.508L10.5 587.513L13.5 587.513L13.5 581.508L10.5 581.508ZM10.5 593.518L10.5 599.524L13.5 599.524L13.5 593.518L10.5 593.518ZM10.5 605.529L10.5 611.534L13.5 611.534L13.5 605.529L10.5 605.529ZM10.5 617.539L10.5 623.545L13.5 623.545L13.5 617.539L10.5 617.539ZM10.5 629.55L10.5 635.555L13.5 635.555L13.5 629.55L10.5 629.55ZM10.5 641.561L10.5 647.566L13.5 647.566L13.5 641.561L10.5 641.561ZM10.5 653.571L10.5 659.577L13.5 659.577L13.5 653.571L10.5 653.571ZM10.5 665.582L10.5 671.587L13.5 671.587L13.5 665.582L10.5 665.582ZM10.5 677.593L10.5 683.598L13.5 683.598L13.5 677.593L10.5 677.593ZM10.5 689.603L10.5 695.609L13.5 695.609L13.5 689.603L10.5 689.603ZM10.5 701.614L10.5 707.619L13.5 707.619L13.5 701.614L10.5 701.614ZM10.5 713.624L10.5 719.63L13.5 719.63L13.5 713.624L10.5 713.624ZM10.5 725.635L10.5 731.64L13.5 731.64L13.5 725.635L10.5 725.635ZM10.5 737.646L10.5 743.651L13.5 743.651L13.5 737.646L10.5 737.646ZM10.5 749.656L10.5 755.662L13.5 755.662L13.5 749.656L10.5 749.656ZM10.5 761.667L10.5 767.672L13.5 767.672L13.5 761.667L10.5 761.667ZM10.5 773.678L10.5 779.683L13.5 779.683L13.5 773.678L10.5 773.678ZM10.5 785.688L10.5 791.693L13.5 791.693L13.5 785.688L10.5 785.688ZM10.5 797.699L10.5 803.704L13.5 803.704L13.5 797.699L10.5 797.699ZM10.5 809.709L10.5 815.715L13.5 815.715L13.5 809.709L10.5 809.709ZM10.5 821.72L10.5 827.725L13.5 827.725L13.5 821.72L10.5 821.72ZM10.5 833.731L10.5 839.736L13.5 839.736L13.5 833.731L10.5 833.731ZM10.5 845.741L10.5 851.747L13.5 851.747L13.5 845.741L10.5 845.741ZM10.5 857.752L10.5 863.757L13.5 863.757L13.5 857.752L10.5 857.752ZM10.5 869.763L10.5 875.768L13.5 875.768L13.5 869.763L10.5 869.763ZM10.5 881.773L10.5 887.778L13.5 887.778L13.5 881.773L10.5 881.773ZM10.5 893.784L10.5 899.789L13.5 899.789L13.5 893.784L10.5 893.784ZM10.5 905.794L10.5 911.8L13.5 911.8L13.5 905.794L10.5 905.794ZM10.5 917.805L10.5 923.81L13.5 923.81L13.5 917.805L10.5 917.805ZM10.5 929.816L10.5 935.821L13.5 935.821L13.5 929.816L10.5 929.816ZM10.5 941.826L10.5 947.831L13.5 947.831L13.5 941.826L10.5 941.826ZM10.5 953.837L10.5 959.842L13.5 959.842L13.5 953.837L10.5 953.837ZM10.5 965.847L10.5 971.853L13.5 971.853L13.5 965.847L10.5 965.847ZM10.5 977.858L10.5 983.863L13.5 983.863L13.5 977.858L10.5 977.858ZM10.5 989.869L10.5 995.874L13.5 995.874L13.5 989.869L10.5 989.869ZM10.5 1001.88L10.5 1007.88L13.5 1007.88L13.5 1001.88L10.5 1001.88ZM10.5 1013.89L10.5 1019.9L13.5 1019.9L13.5 1013.89L10.5 1013.89ZM10.5 1025.9L10.5 1031.91L13.5 1031.91L13.5 1025.9L10.5 1025.9ZM10.5 1037.91L10.5 1043.92L13.5 1043.92L13.5 1037.91L10.5 1037.91ZM10.5 1049.92L10.5 1055.93L13.5 1055.93L13.5 1049.92L10.5 1049.92ZM10.5 1061.93L10.5 1067.94L13.5 1067.94L13.5 1061.93L10.5 1061.93ZM10.5 1073.94L10.5 1079.95L13.5 1079.95L13.5 1073.94L10.5 1073.94ZM10.5 1085.95L10.5 1091.96L13.5 1091.96L13.5 1085.95L10.5 1085.95ZM10.5 1097.96L10.5 1103.97L13.5 1103.97L13.5 1097.96L10.5 1097.96ZM10.5 1109.98L10.5 1115.98L13.5 1115.98L13.5 1109.98L10.5 1109.98ZM10.5 1121.99L10.5 1127.99L13.5 1127.99L13.5 1121.99L10.5 1121.99ZM10.5 1134L10.5 1137L13.5 1137L13.5 1134L10.5 1134Z" fill="#999999"/>
</svg>
