<svg width="34" height="34" viewBox="0 0 34 34" fill="none" xmlns="http://www.w3.org/2000/svg">
<g clip-path="url(#clip0_200_1144)">
<path fill-rule="evenodd" clip-rule="evenodd" d="M2.125 17C2.125 20.9451 3.69218 24.7286 6.48179 27.5182C9.27139 30.3078 13.0549 31.875 17 31.875C20.9451 31.875 24.7286 30.3078 27.5182 27.5182C30.3078 24.7286 31.875 20.9451 31.875 17C31.875 13.0549 30.3078 9.27139 27.5182 6.48179C24.7286 3.69218 20.9451 2.125 17 2.125C13.0549 2.125 9.27139 3.69218 6.48179 6.48179C3.69218 9.27139 2.125 13.0549 2.125 17ZM34 17C34 21.5087 32.2089 25.8327 29.0208 29.0208C25.8327 32.2089 21.5087 34 17 34C12.4913 34 8.1673 32.2089 4.97919 29.0208C1.79107 25.8327 0 21.5087 0 17C0 12.4913 1.79107 8.1673 4.97919 4.97919C8.1673 1.79107 12.4913 0 17 0C21.5087 0 25.8327 1.79107 29.0208 4.97919C32.2089 8.1673 34 12.4913 34 17ZM18.0625 9.5625C18.0625 9.28071 17.9506 9.01046 17.7513 8.8112C17.552 8.61194 17.2818 8.5 17 8.5C16.7182 8.5 16.448 8.61194 16.2487 8.8112C16.0494 9.01046 15.9375 9.28071 15.9375 9.5625V21.8726L11.3773 17.3102C11.1777 17.1107 10.9071 16.9987 10.625 16.9987C10.3429 16.9987 10.0723 17.1107 9.87275 17.3102C9.67324 17.5098 9.56116 17.7804 9.56116 18.0625C9.56116 18.3446 9.67324 18.6152 9.87275 18.8148L16.2477 25.1898C16.3464 25.2887 16.4637 25.3672 16.5928 25.4208C16.7219 25.4743 16.8602 25.5019 17 25.5019C17.1398 25.5019 17.2781 25.4743 17.4072 25.4208C17.5363 25.3672 17.6536 25.2887 17.7523 25.1898L24.1273 18.8148C24.3268 18.6152 24.4388 18.3446 24.4388 18.0625C24.4388 17.7804 24.3268 17.5098 24.1273 17.3102C23.9277 17.1107 23.6571 16.9987 23.375 16.9987C23.0929 16.9987 22.8223 17.1107 22.6227 17.3102L18.0625 21.8726V9.5625Z" fill="#E6E6E6"/>
</g>
<defs>
<clipPath id="clip0_200_1144">
<rect width="34" height="34" fill="white"/>
</clipPath>
</defs>
</svg>
