<svg width="16" height="862" viewBox="0 0 16 862" fill="none" xmlns="http://www.w3.org/2000/svg">
<path d="M8.35355 0.646447C8.15829 0.451184 7.84171 0.451184 7.64645 0.646447L4.46447 3.82843C4.2692 4.02369 4.2692 4.34027 4.46447 4.53553C4.65973 4.7308 4.97631 4.7308 5.17157 4.53553L8 1.70711L10.8284 4.53553C11.0237 4.7308 11.3403 4.7308 11.5355 4.53553C11.7308 4.34027 11.7308 4.02369 11.5355 3.82843L8.35355 0.646447ZM7.99996 853.333C6.5272 853.333 5.3333 854.527 5.3333 856C5.3333 857.473 6.5272 858.667 7.99996 858.667C9.47272 858.667 10.6666 857.473 10.6666 856C10.6666 854.527 9.47272 853.333 7.99996 853.333ZM7.5 1L7.5 5.97093L8.5 5.97093L8.5 1L7.5 1ZM7.5 15.9128L7.5 25.8547L8.5 25.8547L8.5 15.9128L7.5 15.9128ZM7.5 35.7965L7.5 45.7384L8.5 45.7384L8.5 35.7965L7.5 35.7965ZM7.5 55.6802L7.5 65.6221L8.5 65.6221L8.5 55.6802L7.5 55.6802ZM7.5 75.564L7.5 85.5058L8.5 85.5058L8.5 75.564L7.5 75.564ZM7.5 95.4477L7.5 105.39L8.5 105.39L8.5 95.4477L7.5 95.4477ZM7.5 115.331L7.49999 125.273L8.49999 125.273L8.5 115.331L7.5 115.331ZM7.49999 135.215L7.49999 145.157L8.49999 145.157L8.49999 135.215L7.49999 135.215ZM7.49999 155.099L7.49999 165.041L8.49999 165.041L8.49999 155.099L7.49999 155.099ZM7.49999 174.983L7.49999 184.924L8.49999 184.924L8.49999 174.983L7.49999 174.983ZM7.49999 194.866L7.49999 204.808L8.49999 204.808L8.49999 194.866L7.49999 194.866ZM7.49999 214.75L7.49999 224.692L8.49999 224.692L8.49999 214.75L7.49999 214.75ZM7.49999 234.634L7.49999 244.576L8.49999 244.576L8.49999 234.634L7.49999 234.634ZM7.49999 254.518L7.49999 264.459L8.49999 264.459L8.49999 254.518L7.49999 254.518ZM7.49999 274.401L7.49999 284.343L8.49999 284.343L8.49999 274.401L7.49999 274.401ZM7.49999 294.285L7.49999 304.227L8.49999 304.227L8.49999 294.285L7.49999 294.285ZM7.49999 314.169L7.49999 324.111L8.49999 324.111L8.49999 314.169L7.49999 314.169ZM7.49999 334.052L7.49999 343.994L8.49999 343.994L8.49999 334.052L7.49999 334.052ZM7.49998 353.936L7.49998 363.878L8.49998 363.878L8.49998 353.936L7.49998 353.936ZM7.49998 373.82L7.49998 383.762L8.49998 383.762L8.49998 373.82L7.49998 373.82ZM7.49998 393.704L7.49998 403.645L8.49998 403.645L8.49998 393.704L7.49998 393.704ZM7.49998 413.587L7.49998 423.529L8.49998 423.529L8.49998 413.587L7.49998 413.587ZM7.49998 433.471L7.49998 443.413L8.49998 443.413L8.49998 433.471L7.49998 433.471ZM7.49998 453.355L7.49998 463.297L8.49998 463.297L8.49998 453.355L7.49998 453.355ZM7.49998 473.238L7.49998 483.18L8.49998 483.18L8.49998 473.238L7.49998 473.238ZM7.49998 493.122L7.49998 503.064L8.49998 503.064L8.49998 493.122L7.49998 493.122ZM7.49998 513.006L7.49998 522.948L8.49998 522.948L8.49998 513.006L7.49998 513.006ZM7.49998 532.89L7.49998 542.831L8.49998 542.831L8.49998 532.89L7.49998 532.89ZM7.49998 552.773L7.49998 562.715L8.49998 562.715L8.49998 552.773L7.49998 552.773ZM7.49998 572.657L7.49997 582.599L8.49997 582.599L8.49998 572.657L7.49998 572.657ZM7.49997 592.541L7.49997 602.482L8.49997 602.482L8.49997 592.541L7.49997 592.541ZM7.49997 612.424L7.49997 622.366L8.49997 622.366L8.49997 612.424L7.49997 612.424ZM7.49997 632.308L7.49997 642.25L8.49997 642.25L8.49997 632.308L7.49997 632.308ZM7.49997 652.192L7.49997 662.133L8.49997 662.133L8.49997 652.192L7.49997 652.192ZM7.49997 672.075L7.49997 682.017L8.49997 682.017L8.49997 672.075L7.49997 672.075ZM7.49997 691.959L7.49997 701.901L8.49997 701.901L8.49997 691.959L7.49997 691.959ZM7.49997 711.843L7.49997 721.784L8.49997 721.784L8.49997 711.843L7.49997 711.843ZM7.49997 731.726L7.49997 741.668L8.49997 741.668L8.49997 731.726L7.49997 731.726ZM7.49997 751.61L7.49997 761.552L8.49997 761.552L8.49997 751.61L7.49997 751.61ZM7.49997 771.494L7.49997 781.435L8.49997 781.435L8.49997 771.494L7.49997 771.494ZM7.49997 791.377L7.49997 801.319L8.49997 801.319L8.49997 791.377L7.49997 791.377ZM7.49996 811.261L7.49996 821.203L8.49996 821.203L8.49996 811.261L7.49996 811.261ZM7.49996 831.145L7.49996 841.086L8.49996 841.086L8.49996 831.145L7.49996 831.145ZM7.49996 851.028L7.49996 856L8.49996 856L8.49996 851.028L7.49996 851.028ZM8.70711 0.292893C8.31658 -0.0976311 7.68342 -0.0976311 7.29289 0.292893L0.928932 6.65685C0.538408 7.04738 0.538408 7.68054 0.928932 8.07107C1.31946 8.46159 1.95262 8.46159 2.34315 8.07107L8 2.41421L13.6569 8.07107C14.0474 8.46159 14.6805 8.46159 15.0711 8.07107C15.4616 7.68054 15.4616 7.04738 15.0711 6.65685L8.70711 0.292893ZM7.99996 850.667C5.05444 850.667 2.66663 853.054 2.66663 856C2.66663 858.946 5.05444 861.333 7.99996 861.333C10.9455 861.333 13.3333 858.946 13.3333 856C13.3333 853.054 10.9455 850.667 7.99996 850.667ZM7 1L7 5.97093L9 5.97093L9 1L7 1ZM7 15.9128L7 25.8547L9 25.8547L9 15.9128L7 15.9128ZM7 35.7965L7 45.7384L9 45.7384L9 35.7965L7 35.7965ZM7 55.6802L7 65.6221L9 65.6221L9 55.6802L7 55.6802ZM7 75.564L7 85.5058L9 85.5058L9 75.564L7 75.564ZM7 95.4477L7 105.39L9 105.39L9 95.4477L7 95.4477ZM7 115.331L6.99999 125.273L8.99999 125.273L9 115.331L7 115.331ZM6.99999 135.215L6.99999 145.157L8.99999 145.157L8.99999 135.215L6.99999 135.215ZM6.99999 155.099L6.99999 165.041L8.99999 165.041L8.99999 155.099L6.99999 155.099ZM6.99999 174.983L6.99999 184.924L8.99999 184.924L8.99999 174.983L6.99999 174.983ZM6.99999 194.866L6.99999 204.808L8.99999 204.808L8.99999 194.866L6.99999 194.866ZM6.99999 214.75L6.99999 224.692L8.99999 224.692L8.99999 214.75L6.99999 214.75ZM6.99999 234.634L6.99999 244.576L8.99999 244.576L8.99999 234.634L6.99999 234.634ZM6.99999 254.518L6.99999 264.459L8.99999 264.459L8.99999 254.518L6.99999 254.518ZM6.99999 274.401L6.99999 284.343L8.99999 284.343L8.99999 274.401L6.99999 274.401ZM6.99999 294.285L6.99999 304.227L8.99999 304.227L8.99999 294.285L6.99999 294.285ZM6.99999 314.169L6.99999 324.111L8.99999 324.111L8.99999 314.169L6.99999 314.169ZM6.99999 334.052L6.99999 343.994L8.99999 343.994L8.99999 334.052L6.99999 334.052ZM6.99998 353.936L6.99998 363.878L8.99998 363.878L8.99998 353.936L6.99998 353.936ZM6.99998 373.82L6.99998 383.762L8.99998 383.762L8.99998 373.82L6.99998 373.82ZM6.99998 393.704L6.99998 403.645L8.99998 403.645L8.99998 393.704L6.99998 393.704ZM6.99998 413.587L6.99998 423.529L8.99998 423.529L8.99998 413.587L6.99998 413.587ZM6.99998 433.471L6.99998 443.413L8.99998 443.413L8.99998 433.471L6.99998 433.471ZM6.99998 453.355L6.99998 463.297L8.99998 463.297L8.99998 453.355L6.99998 453.355ZM6.99998 473.238L6.99998 483.18L8.99998 483.18L8.99998 473.238L6.99998 473.238ZM6.99998 493.122L6.99998 503.064L8.99998 503.064L8.99998 493.122L6.99998 493.122ZM6.99998 513.006L6.99998 522.948L8.99998 522.948L8.99998 513.006L6.99998 513.006ZM6.99998 532.89L6.99998 542.831L8.99998 542.831L8.99998 532.89L6.99998 532.89ZM6.99998 552.773L6.99998 562.715L8.99998 562.715L8.99998 552.773L6.99998 552.773ZM6.99998 572.657L6.99997 582.599L8.99997 582.599L8.99998 572.657L6.99998 572.657ZM6.99997 592.541L6.99997 602.482L8.99997 602.482L8.99997 592.541L6.99997 592.541ZM6.99997 612.424L6.99997 622.366L8.99997 622.366L8.99997 612.424L6.99997 612.424ZM6.99997 632.308L6.99997 642.25L8.99997 642.25L8.99997 632.308L6.99997 632.308ZM6.99997 652.192L6.99997 662.133L8.99997 662.133L8.99997 652.192L6.99997 652.192ZM6.99997 672.075L6.99997 682.017L8.99997 682.017L8.99997 672.075L6.99997 672.075ZM6.99997 691.959L6.99997 701.901L8.99997 701.901L8.99997 691.959L6.99997 691.959ZM6.99997 711.843L6.99997 721.784L8.99997 721.784L8.99997 711.843L6.99997 711.843ZM6.99997 731.726L6.99997 741.668L8.99997 741.668L8.99997 731.726L6.99997 731.726ZM6.99997 751.61L6.99997 761.552L8.99997 761.552L8.99997 751.61L6.99997 751.61ZM6.99997 771.494L6.99997 781.435L8.99997 781.435L8.99997 771.494L6.99997 771.494ZM6.99997 791.377L6.99997 801.319L8.99997 801.319L8.99997 791.377L6.99997 791.377ZM6.99996 811.261L6.99996 821.203L8.99996 821.203L8.99996 811.261L6.99996 811.261ZM6.99996 831.145L6.99996 841.086L8.99996 841.086L8.99996 831.145L6.99996 831.145ZM6.99996 851.028L6.99996 856L8.99996 856L8.99996 851.028L6.99996 851.028Z" fill="#E6E6E6"/>
</svg>
