<svg width="1202" height="410" viewBox="0 0 1202 410" fill="none" xmlns="http://www.w3.org/2000/svg">
<path fill-rule="evenodd" clip-rule="evenodd" d="M671.985 173.912H689.673V215.241H671.985V250.665H654.298V268.378H636.611V280.186H654.298V321.515H630.715V286.09H613.028V268.378H601.236H589.445V286.09H571.757V321.515H548.174V280.186H565.862V268.378H548.174V250.665H530.487V215.241H512.8V173.912H530.487V156.199H559.966V185.72H542.279V209.336H548.174V191.624H565.862V179.816H601.236H636.611V191.624H654.298V209.336H660.194V185.72H642.506V156.199H671.985V173.912ZM589.445 238.857H565.862V215.241H589.445V238.857ZM613.028 238.857H636.611V215.241H613.028V238.857Z" fill="white"/>
<circle cx="601" cy="238.999" r="155" stroke="#999999" stroke-width="2"/>
<circle cx="601" cy="238.999" r="170" stroke="#999999" stroke-width="2"/>
<path d="M790.55 245.352C790.355 245.157 790.355 244.84 790.55 244.645L793.732 241.463C793.927 241.268 794.244 241.268 794.439 241.463C794.634 241.658 794.634 241.975 794.439 242.17L791.61 244.999L794.439 247.827C794.634 248.022 794.634 248.339 794.439 248.534C794.244 248.729 793.927 248.729 793.732 248.534L790.55 245.352ZM1059.4 244.999L1059.4 245.499L1059.4 245.499L1059.4 244.999ZM1086.4 237.499L1086.76 237.852L1086.76 237.852L1086.4 237.499ZM1094.9 211.499L1095.4 211.492L1095.4 211.499L1094.9 211.499ZM1094.9 211.499L1094.4 211.506L1094.4 211.499L1094.9 211.499ZM1092.86 15.7111C1091.91 14.5817 1092.06 12.8999 1093.19 11.9547C1094.32 11.0094 1096 11.1587 1096.95 12.2881C1097.89 13.4175 1097.74 15.0993 1096.61 16.0445C1095.49 16.9898 1093.8 16.8405 1092.86 15.7111ZM790.903 244.499L796.067 244.499L796.067 245.499L790.903 245.499L790.903 244.499ZM806.394 244.499L816.721 244.499L816.721 245.499L806.394 245.499L806.394 244.499ZM827.048 244.499L837.375 244.499L837.375 245.499L827.048 245.499L827.048 244.499ZM847.702 244.499L858.029 244.499L858.029 245.499L847.702 245.499L847.702 244.499ZM868.355 244.499L878.682 244.499L878.682 245.499L868.355 245.499L868.355 244.499ZM889.009 244.499L899.336 244.499L899.336 245.499L889.009 245.499L889.009 244.499ZM909.663 244.499L919.99 244.499L919.99 245.499L909.663 245.499L909.663 244.499ZM930.317 244.499L940.644 244.499L940.644 245.499L930.317 245.499L930.317 244.499ZM950.971 244.499L961.298 244.499L961.298 245.499L950.971 245.499L950.971 244.499ZM971.625 244.499L981.952 244.499L981.952 245.499L971.625 245.499L971.625 244.499ZM992.279 244.499L1002.61 244.499L1002.61 245.499L992.279 245.499L992.279 244.499ZM1012.93 244.499L1023.26 244.499L1023.26 245.499L1012.93 245.499L1012.93 244.499ZM1033.59 244.499L1043.91 244.499L1043.91 245.499L1033.59 245.499L1033.59 244.499ZM1054.24 244.499L1059.4 244.499L1059.4 245.499L1054.24 245.499L1054.24 244.499ZM1059.4 244.499C1061.51 244.499 1063.95 244.587 1066.61 244.489L1066.65 245.488C1063.96 245.587 1061.46 245.499 1059.4 245.499L1059.4 244.499ZM1080.37 241.315C1082.35 240.285 1084.27 238.929 1086.05 237.145L1086.76 237.852C1084.9 239.712 1082.9 241.127 1080.83 242.202L1080.37 241.315ZM1086.05 237.145C1087.84 235.351 1089.25 233.538 1090.35 231.717L1091.21 232.235C1090.06 234.128 1088.61 236.004 1086.76 237.852L1086.05 237.145ZM1094.23 218.522C1094.4 216.166 1094.4 213.825 1094.4 211.499L1095.4 211.499C1095.4 213.819 1095.4 216.197 1095.23 218.594L1094.23 218.522ZM1094.4 211.507L1094.4 211.507L1095.4 211.491L1095.4 211.492L1094.4 211.507ZM1094.4 211.507L1094.4 211.506L1095.4 211.491L1095.4 211.491L1094.4 211.507ZM1094.4 211.499C1094.4 210.859 1094.4 209.196 1094.4 206.669L1095.4 206.669C1095.4 209.196 1095.4 210.859 1095.4 211.499L1094.4 211.499ZM1094.4 196.746C1094.4 193.807 1094.4 190.502 1094.4 186.888L1095.4 186.888C1095.4 190.502 1095.4 193.807 1095.4 196.746L1094.4 196.746ZM1094.4 176.94C1094.4 173.805 1094.4 170.519 1094.4 167.108L1095.4 167.108C1095.4 170.519 1095.4 173.805 1095.4 176.94L1094.4 176.94ZM1094.4 157.229C1094.4 154.004 1094.4 150.701 1094.4 147.337L1095.4 147.337C1095.4 150.701 1095.4 154.004 1095.4 157.229L1094.4 157.229ZM1094.4 137.446C1094.4 134.184 1094.4 130.884 1094.4 127.562L1095.4 127.562C1095.4 130.884 1095.4 134.184 1095.4 137.446L1094.4 137.446ZM1094.4 117.688C1094.4 114.396 1094.4 111.098 1094.4 107.808L1095.4 107.808C1095.4 111.098 1095.4 114.396 1095.4 117.688L1094.4 117.688ZM1094.4 97.9242C1094.4 94.6008 1094.4 91.3005 1094.4 88.0388L1095.4 88.0388C1095.4 91.3005 1095.4 94.6008 1095.4 97.9242L1094.4 97.9242ZM1094.4 78.1542C1094.4 74.7947 1094.4 71.4965 1094.4 68.2781L1095.4 68.2781C1095.4 71.4965 1095.4 74.7947 1095.4 78.1542L1094.4 78.1542ZM1094.4 58.4285C1094.4 54.9841 1094.4 51.6679 1094.4 48.5069L1095.4 48.5069C1095.4 51.6679 1095.4 54.9841 1095.4 58.4285L1094.4 58.4285ZM1094.4 38.6346C1094.4 34.9928 1094.4 31.6679 1094.4 28.7204L1095.4 28.7204C1095.4 31.6679 1095.4 34.9928 1095.4 38.6346L1094.4 38.6346ZM1094.4 18.9067C1094.4 17.3256 1094.4 16.0988 1094.4 15.2673C1094.4 14.8516 1094.4 14.5346 1094.4 14.3216C1094.4 14.2151 1094.4 14.1346 1094.4 14.0807C1094.4 14.0538 1094.4 14.0335 1094.4 14.02C1094.4 14.0132 1094.4 14.0081 1094.4 14.0047C1094.4 14.003 1094.4 14.0017 1094.4 14.0009C1094.4 14.0004 1094.4 14.0002 1094.4 13.9999C1094.4 13.9997 1094.4 13.9998 1094.4 13.9997C1094.4 13.9996 1094.4 13.9996 1094.4 13.9996C1094.4 13.9996 1094.4 13.9996 1094.9 13.9996C1095.4 13.9996 1095.4 13.9996 1095.4 13.9996C1095.4 13.9996 1095.4 13.9997 1095.4 13.9997C1095.4 13.9997 1095.4 13.9997 1095.4 13.9998C1095.4 13.9998 1095.4 13.9999 1095.4 13.9999C1095.4 14.0001 1095.4 14.0005 1095.4 14.0009C1095.4 14.0018 1095.4 14.003 1095.4 14.0047C1095.4 14.0081 1095.4 14.0132 1095.4 14.02C1095.4 14.0335 1095.4 14.0538 1095.4 14.0808C1095.4 14.1346 1095.4 14.2152 1095.4 14.3217C1095.4 14.5347 1095.4 14.8516 1095.4 15.2673C1095.4 16.0988 1095.4 17.3256 1095.4 18.9067L1094.4 18.9067ZM790.196 245.706C789.806 245.315 789.806 244.682 790.196 244.292L796.56 237.928C796.951 237.537 797.584 237.537 797.974 237.928C798.365 238.318 798.365 238.951 797.974 239.342L792.318 244.999L797.974 250.656C798.365 251.046 798.365 251.679 797.974 252.07C797.584 252.46 796.951 252.46 796.56 252.07L790.196 245.706ZM1059.4 244.999L1059.4 245.999L1059.4 245.999L1059.4 244.999ZM1086.4 237.499L1087.11 238.206L1087.11 238.206L1086.4 237.499ZM1094.9 211.499L1095.9 211.484L1095.9 211.492L1095.9 211.499L1094.9 211.499ZM1094.9 211.499L1093.9 211.514L1093.9 211.506L1093.9 211.499L1094.9 211.499ZM1090.81 17.4226C1088.92 15.1639 1089.22 11.8002 1091.48 9.90972C1093.74 8.01922 1097.1 8.31777 1098.99 10.5765C1100.88 12.8353 1100.58 16.199 1098.33 18.0895C1096.07 19.98 1092.7 19.6814 1090.81 17.4226ZM790.903 243.999L796.067 243.999L796.067 245.999L790.903 245.999L790.903 243.999ZM806.394 243.999L816.721 243.999L816.721 245.999L806.394 245.999L806.394 243.999ZM827.048 243.999L837.375 243.999L837.375 245.999L827.048 245.999L827.048 243.999ZM847.702 243.999L858.029 243.999L858.029 245.999L847.702 245.999L847.702 243.999ZM868.355 243.999L878.682 243.999L878.682 245.999L868.355 245.999L868.355 243.999ZM889.009 243.999L899.336 243.999L899.336 245.999L889.009 245.999L889.009 243.999ZM909.663 243.999L919.99 243.999L919.99 245.999L909.663 245.999L909.663 243.999ZM930.317 243.999L940.644 243.999L940.644 245.999L930.317 245.999L930.317 243.999ZM950.971 243.999L961.298 243.999L961.298 245.999L950.971 245.999L950.971 243.999ZM971.625 243.999L981.952 243.999L981.952 245.999L971.625 245.999L971.625 243.999ZM992.279 243.999L1002.61 243.999L1002.61 245.999L992.279 245.999L992.279 243.999ZM1012.93 243.999L1023.26 243.999L1023.26 245.999L1012.93 245.999L1012.93 243.999ZM1033.59 243.999L1043.91 243.999L1043.91 245.999L1033.59 245.999L1033.59 243.999ZM1054.24 243.999L1059.4 243.999L1059.4 245.999L1054.24 245.999L1054.24 243.999ZM1059.4 243.999C1061.53 243.999 1063.94 244.087 1066.59 243.989L1066.67 245.988C1063.97 246.087 1061.43 245.999 1059.4 245.999L1059.4 243.999ZM1080.14 240.871C1082.07 239.864 1083.95 238.538 1085.7 236.791L1087.11 238.206C1085.21 240.104 1083.17 241.549 1081.06 242.646L1080.14 240.871ZM1085.7 236.791C1087.46 235.024 1088.84 233.243 1089.93 231.458L1091.64 232.494C1090.47 234.423 1088.99 236.33 1087.11 238.206L1085.7 236.791ZM1093.73 218.485C1093.9 216.151 1093.9 213.827 1093.9 211.499L1095.9 211.499C1095.9 213.816 1095.9 216.212 1095.73 218.631L1093.73 218.485ZM1093.9 211.515L1093.9 211.514L1095.9 211.484L1095.9 211.484L1093.9 211.515ZM1093.9 211.514L1093.9 211.514L1095.9 211.483L1095.9 211.484L1093.9 211.514ZM1093.9 211.499C1093.9 210.859 1093.9 209.196 1093.9 206.669L1095.9 206.669C1095.9 209.196 1095.9 210.859 1095.9 211.499L1093.9 211.499ZM1093.9 196.746C1093.9 193.807 1093.9 190.502 1093.9 186.888L1095.9 186.888C1095.9 190.502 1095.9 193.807 1095.9 196.746L1093.9 196.746ZM1093.9 176.94C1093.9 173.805 1093.9 170.519 1093.9 167.108L1095.9 167.108C1095.9 170.519 1095.9 173.805 1095.9 176.94L1093.9 176.94ZM1093.9 157.229C1093.9 154.004 1093.9 150.701 1093.9 147.337L1095.9 147.337C1095.9 150.701 1095.9 154.004 1095.9 157.229L1093.9 157.229ZM1093.9 137.446C1093.9 134.184 1093.9 130.884 1093.9 127.562L1095.9 127.562C1095.9 130.884 1095.9 134.184 1095.9 137.446L1093.9 137.446ZM1093.9 117.688C1093.9 114.396 1093.9 111.098 1093.9 107.808L1095.9 107.808C1095.9 111.098 1095.9 114.396 1095.9 117.688L1093.9 117.688ZM1093.9 97.9242C1093.9 94.6008 1093.9 91.3005 1093.9 88.0388L1095.9 88.0388C1095.9 91.3005 1095.9 94.6008 1095.9 97.9242L1093.9 97.9242ZM1093.9 78.1542C1093.9 74.7947 1093.9 71.4965 1093.9 68.2781L1095.9 68.2781C1095.9 71.4965 1095.9 74.7947 1095.9 78.1542L1093.9 78.1542ZM1093.9 58.4285C1093.9 54.9841 1093.9 51.6679 1093.9 48.5069L1095.9 48.5069C1095.9 51.6679 1095.9 54.9841 1095.9 58.4285L1093.9 58.4285ZM1093.9 38.6346C1093.9 34.9928 1093.9 31.6679 1093.9 28.7204L1095.9 28.7204C1095.9 31.6679 1095.9 34.9928 1095.9 38.6346L1093.9 38.6346ZM1093.9 18.9067C1093.9 17.3256 1093.9 16.0988 1093.9 15.2673C1093.9 14.8516 1093.9 14.5346 1093.9 14.3216C1093.9 14.2151 1093.9 14.1346 1093.9 14.0807C1093.9 14.0538 1093.9 14.0335 1093.9 14.02C1093.9 14.0132 1093.9 14.0081 1093.9 14.0047C1093.9 14.003 1093.9 14.0018 1093.9 14.0009C1093.9 14.0004 1093.9 14.0001 1093.9 13.9999C1093.9 13.9995 1093.9 14 1093.9 13.9997C1093.9 13.9996 1093.9 13.9996 1093.9 13.9996C1093.9 13.9996 1093.9 13.9996 1094.9 13.9996C1095.9 13.9996 1095.9 13.9996 1095.9 13.9996C1095.9 13.9996 1095.9 13.9997 1095.9 13.9997C1095.9 13.9997 1095.9 13.9997 1095.9 13.9998C1095.9 13.9998 1095.9 13.9999 1095.9 13.9999C1095.9 14.0002 1095.9 14.0004 1095.9 14.0009C1095.9 14.0017 1095.9 14.003 1095.9 14.0047C1095.9 14.0081 1095.9 14.0132 1095.9 14.02C1095.9 14.0335 1095.9 14.0538 1095.9 14.0808C1095.9 14.1346 1095.9 14.2152 1095.9 14.3217C1095.9 14.5347 1095.9 14.8516 1095.9 15.2673C1095.9 16.0988 1095.9 17.3256 1095.9 18.9067L1093.9 18.9067Z" fill="#E6E6E6"/>
<path d="M412.831 246.16C413.774 245.028 413.621 243.347 412.489 242.404C411.358 241.462 409.676 241.615 408.734 242.746C407.791 243.878 407.944 245.559 409.076 246.502C410.207 247.445 411.889 247.291 412.831 246.16ZM142.302 244.996L142.301 244.496L142.301 244.496L142.302 244.996ZM115.286 237.557L115.639 237.203L115.639 237.203L115.286 237.557ZM106.724 211.58L107.224 211.579L107.224 211.572L107.224 211.564L106.724 211.58ZM106.724 211.58L106.224 211.581L106.224 211.588L106.224 211.596L106.724 211.58ZM106.596 13.7493C106.401 13.5545 106.084 13.5553 105.889 13.7511L102.715 16.9408C102.52 17.1365 102.521 17.4531 102.717 17.6479C102.913 17.8427 103.229 17.8419 103.424 17.6462L106.245 14.8108L109.081 17.6324C109.277 17.8272 109.593 17.8264 109.788 17.6306C109.983 17.4349 109.982 17.1183 109.786 16.9235L106.596 13.7493ZM410.781 243.953C409.115 243.957 407.414 243.961 405.678 243.965L405.68 244.965C407.416 244.961 409.117 244.957 410.784 244.953L410.781 243.953ZM395.324 243.987C391.966 243.995 388.511 244.002 384.971 244.01L384.973 245.01C388.513 245.002 391.968 244.995 395.326 244.987L395.324 243.987ZM374.649 244.032C371.267 244.039 367.823 244.046 364.326 244.054L364.328 245.054C367.826 245.046 371.269 245.039 374.651 245.032L374.649 244.032ZM353.999 244.075C350.593 244.082 347.148 244.089 343.67 244.097L343.672 245.097C347.15 245.089 350.595 245.082 354.001 245.075L353.999 244.075ZM333.34 244.118C329.917 244.125 326.472 244.132 323.01 244.139L323.012 245.139C326.474 245.132 329.919 245.125 333.342 245.118L333.34 244.118ZM312.684 244.16C309.249 244.167 305.805 244.174 302.358 244.181L302.36 245.181C305.807 245.174 309.251 245.167 312.686 245.16L312.684 244.16ZM292.029 244.202C288.579 244.208 285.134 244.215 281.699 244.222L281.701 245.222C285.136 245.215 288.581 245.208 292.031 245.202L292.029 244.202ZM271.368 244.243C267.903 244.25 264.457 244.257 261.036 244.263L261.038 245.263C264.459 245.257 267.905 245.25 271.37 245.243L271.368 244.243ZM250.704 244.284C247.222 244.291 243.776 244.297 240.372 244.304L240.374 245.304C243.778 245.297 247.224 245.291 250.706 245.284L250.704 244.284ZM230.042 244.324C226.539 244.331 223.094 244.338 219.715 244.345L219.716 245.345C223.096 245.338 226.541 245.331 230.044 245.324L230.042 244.324ZM209.395 244.365C205.867 244.372 202.429 244.378 199.094 244.385L199.096 245.385C202.431 245.378 205.869 245.372 209.397 245.365L209.395 244.365ZM188.721 244.405C185.107 244.412 181.65 244.419 178.371 244.425L178.373 245.425C181.652 245.419 185.109 245.412 188.723 245.405L188.721 244.405ZM168.096 244.445C164.276 244.453 160.811 244.459 157.745 244.465L157.747 245.465C160.813 245.459 164.278 245.453 168.098 245.445L168.096 244.445ZM147.364 244.486C144.616 244.491 142.879 244.495 142.301 244.496L142.303 245.496C142.881 245.495 144.618 245.491 147.366 245.486L147.364 244.486ZM142.301 244.496C140.199 244.501 137.757 244.594 135.094 244.502L135.059 245.501C137.745 245.594 140.25 245.5 142.303 245.496L142.301 244.496ZM121.331 241.359C119.348 240.334 117.427 238.983 115.639 237.203L114.933 237.912C116.798 239.767 118.803 241.178 120.872 242.248L121.331 241.359ZM115.639 237.203C113.84 235.413 112.43 233.604 111.323 231.785L110.469 232.305C111.619 234.196 113.08 236.068 114.933 237.912L115.639 237.203ZM107.413 218.601C107.235 216.246 107.23 213.904 107.224 211.579L106.224 211.581C106.23 213.901 106.235 216.278 106.415 218.676L107.413 218.601ZM107.224 211.564L107.224 211.564L106.224 211.596L106.224 211.596L107.224 211.564ZM107.224 211.564L107.224 211.564L106.224 211.596L106.224 211.596L107.224 211.564ZM107.224 211.579C107.223 210.939 107.219 209.277 107.213 206.749L106.213 206.752C106.219 209.279 106.223 210.941 106.224 211.581L107.224 211.579ZM107.188 196.828C107.181 193.889 107.173 190.584 107.165 186.971L106.165 186.973C106.173 190.586 106.181 193.891 106.188 196.83L107.188 196.828ZM107.14 177.024C107.133 173.889 107.125 170.604 107.117 167.193L106.117 167.196C106.125 170.606 106.133 173.892 106.14 177.027L107.14 177.024ZM107.092 157.315C107.085 154.091 107.077 150.788 107.068 147.424L106.068 147.426C106.077 150.79 106.085 154.093 106.092 157.317L107.092 157.315ZM107.044 137.534C107.036 134.273 107.028 130.974 107.02 127.652L106.02 127.654C106.028 130.976 106.036 134.275 106.044 137.537L107.044 137.534ZM106.996 117.778C106.988 114.488 106.98 111.19 106.972 107.9L105.972 107.902C105.98 111.192 105.988 114.49 105.996 117.781L106.996 117.778ZM106.948 98.0174C106.94 94.6943 106.932 91.3944 106.924 88.133L105.924 88.1355C105.932 91.3968 105.94 94.6968 105.948 98.0198L106.948 98.0174ZM106.9 78.2496C106.892 74.8906 106.884 71.5927 106.876 68.3747L105.876 68.3771C105.884 71.5952 105.892 74.893 105.9 78.2521L106.9 78.2496ZM106.852 58.5262C106.844 55.0822 106.836 51.7664 106.828 48.6058L105.828 48.6082C105.836 51.7688 105.844 55.0847 105.852 58.5286L106.852 58.5262ZM106.804 38.7346C106.795 35.0933 106.787 31.7687 106.78 28.8216L105.78 28.824C105.787 31.7711 105.795 35.0957 105.804 38.737L106.804 38.7346ZM106.756 19.009C106.752 17.4281 106.749 16.2015 106.747 15.3701C106.746 14.9544 106.745 14.6375 106.745 14.4245C106.744 14.3181 106.744 14.2375 106.744 14.1837C106.744 14.1567 106.744 14.1364 106.744 14.1229C106.744 14.1161 106.744 14.111 106.744 14.1076C106.744 14.1059 106.744 14.1047 106.744 14.1038C106.744 14.1034 106.744 14.1031 106.744 14.1028C106.744 14.1027 106.744 14.1027 106.744 14.1026C106.744 14.1026 106.744 14.1026 106.744 14.1025C106.744 14.1025 106.744 14.1025 106.244 14.1037C105.744 14.105 105.744 14.105 105.744 14.105C105.744 14.105 105.744 14.105 105.744 14.105C105.744 14.105 105.744 14.1052 105.744 14.1053C105.744 14.1055 105.744 14.1058 105.744 14.1062C105.744 14.1071 105.744 14.1083 105.744 14.1101C105.744 14.1135 105.744 14.1186 105.744 14.1253C105.744 14.1389 105.744 14.1592 105.744 14.1861C105.744 14.24 105.744 14.3205 105.745 14.427C105.745 14.6399 105.746 14.9568 105.747 15.3725C105.749 16.2039 105.752 17.4305 105.756 19.0114L106.756 19.009ZM414.88 247.867C416.766 245.603 416.459 242.24 414.196 240.355C411.933 238.47 408.57 238.776 406.685 241.04C404.799 243.303 405.106 246.666 407.369 248.551C409.632 250.436 412.995 250.13 414.88 247.867ZM142.302 244.996L142.3 243.996L142.3 243.996L142.302 244.996ZM115.286 237.557L115.991 236.849L115.991 236.849L115.286 237.557ZM106.724 211.58L107.724 211.578L107.724 211.563L107.724 211.548L106.724 211.58ZM106.724 211.58L105.724 211.582L105.724 211.597L105.725 211.612L106.724 211.58ZM106.949 13.3949C106.558 13.0053 105.925 13.0069 105.535 13.3984L99.1865 19.7778C98.7969 20.1693 98.7985 20.8024 99.1899 21.192C99.5814 21.5816 100.215 21.58 100.604 21.1886L106.247 15.518L111.918 21.161C112.309 21.5506 112.942 21.549 113.332 21.1575C113.722 20.7661 113.72 20.1329 113.329 19.7433L106.949 13.3949ZM410.78 243.453C409.114 243.457 407.412 243.461 405.677 243.465L405.682 245.465C407.417 245.461 409.119 245.457 410.785 245.453L410.78 243.453ZM395.323 243.487C391.965 243.495 388.51 243.502 384.97 243.51L384.974 245.51C388.515 245.502 391.969 245.495 395.327 245.487L395.323 243.487ZM374.648 243.532C371.266 243.539 367.822 243.546 364.325 243.554L364.329 245.554C367.827 245.546 371.27 245.539 374.652 245.532L374.648 243.532ZM353.998 243.575C350.592 243.582 347.147 243.589 343.669 243.597L343.673 245.597C347.151 245.589 350.596 245.582 354.002 245.575L353.998 243.575ZM333.339 243.618C329.916 243.625 326.471 243.632 323.009 243.639L323.013 245.639C326.475 245.632 329.92 245.625 333.343 245.618L333.339 243.618ZM312.683 243.66C309.248 243.667 305.804 243.674 302.357 243.681L302.361 245.681C305.808 245.674 309.252 245.667 312.687 245.66L312.683 243.66ZM292.028 243.702C288.578 243.708 285.133 243.715 281.698 243.722L281.702 245.722C285.137 245.715 288.583 245.708 292.032 245.702L292.028 243.702ZM271.367 243.743C267.902 243.75 264.456 243.757 261.035 243.763L261.039 245.763C264.46 245.757 267.906 245.75 271.371 245.743L271.367 243.743ZM250.703 243.784C247.221 243.791 243.775 243.797 240.371 243.804L240.375 245.804C243.779 245.797 247.225 245.791 250.707 245.784L250.703 243.784ZM230.041 243.824C226.538 243.831 223.093 243.838 219.714 243.845L219.717 245.845C223.096 245.838 226.542 245.831 230.045 245.824L230.041 243.824ZM209.394 243.865C205.866 243.872 202.428 243.878 199.093 243.885L199.097 245.885C202.432 245.878 205.87 245.872 209.398 245.865L209.394 243.865ZM188.72 243.905C185.106 243.912 181.649 243.919 178.37 243.925L178.374 245.925C181.653 245.919 185.11 245.912 188.724 245.905L188.72 243.905ZM168.095 243.945C164.275 243.953 160.81 243.959 157.744 243.965L157.748 245.965C160.814 245.959 164.279 245.953 168.098 245.945L168.095 243.945ZM147.363 243.986C144.615 243.991 142.878 243.995 142.3 243.996L142.304 245.996C142.882 245.995 144.619 245.991 147.367 245.986L147.363 243.986ZM142.3 243.996C140.174 244.001 137.763 244.094 135.111 244.002L135.042 246.001C137.739 246.094 140.275 246 142.304 245.996L142.3 243.996ZM121.561 240.915C119.621 239.912 117.742 238.591 115.991 236.849L114.581 238.266C116.483 240.159 118.53 241.6 120.642 242.692L121.561 240.915ZM115.991 236.849C114.22 235.086 112.835 233.308 111.75 231.525L110.042 232.565C111.214 234.492 112.7 236.395 114.581 238.266L115.991 236.849ZM107.911 218.563C107.735 216.229 107.73 213.906 107.724 211.578L105.724 211.583C105.73 213.899 105.735 216.295 105.917 218.713L107.911 218.563ZM107.724 211.548L107.724 211.548L105.725 211.612L105.725 211.612L107.724 211.548ZM107.724 211.548L107.724 211.548L105.725 211.612L105.725 211.612L107.724 211.548ZM107.724 211.577C107.723 210.938 107.719 209.275 107.713 206.748L105.713 206.753C105.719 209.28 105.723 210.942 105.724 211.582L107.724 211.577ZM107.688 196.827C107.681 193.888 107.673 190.583 107.665 186.97L105.665 186.975C105.673 190.587 105.681 193.893 105.688 196.832L107.688 196.827ZM107.64 177.023C107.633 173.888 107.625 170.602 107.617 167.192L105.617 167.197C105.625 170.607 105.633 173.893 105.64 177.028L107.64 177.023ZM107.592 157.314C107.585 154.09 107.577 150.787 107.568 147.423L105.568 147.428C105.577 150.791 105.585 154.095 105.592 157.318L107.592 157.314ZM107.544 137.533C107.536 134.272 107.528 130.972 107.52 127.65L105.52 127.655C105.528 130.977 105.536 134.277 105.544 137.538L107.544 137.533ZM107.496 117.777C107.488 114.486 107.48 111.189 107.472 107.898L105.472 107.903C105.48 111.194 105.488 114.491 105.496 117.782L107.496 117.777ZM107.448 98.0161C107.44 94.6931 107.432 91.3932 107.424 88.1318L105.424 88.1367C105.432 91.3981 105.44 94.698 105.448 98.021L107.448 98.0161ZM107.4 78.2484C107.392 74.8893 107.384 71.5915 107.376 68.3735L105.376 68.3783C105.384 71.5964 105.392 74.8942 105.4 78.2533L107.4 78.2484ZM107.352 58.525C107.344 55.081 107.336 51.7652 107.328 48.6045L105.328 48.6094C105.336 51.77 105.344 55.0859 105.352 58.5298L107.352 58.525ZM107.304 38.7334C107.295 35.0921 107.287 31.7675 107.28 28.8203L105.28 28.8252C105.287 31.7724 105.295 35.0969 105.304 38.7383L107.304 38.7334ZM107.256 19.0077C107.252 17.4269 107.249 16.2003 107.247 15.3689C107.246 14.9532 107.245 14.6363 107.245 14.4233C107.244 14.3168 107.244 14.2363 107.244 14.1825C107.244 14.1555 107.244 14.1352 107.244 14.1217C107.244 14.1149 107.244 14.1098 107.244 14.1064C107.244 14.1047 107.244 14.1035 107.244 14.1026C107.244 14.1022 107.244 14.1018 107.244 14.1016C107.244 14.1015 107.244 14.1014 107.244 14.1014C107.244 14.1014 107.244 14.1013 107.244 14.1013C107.244 14.1013 107.244 14.1013 106.244 14.1037C105.244 14.1062 105.244 14.1062 105.244 14.1062C105.244 14.1062 105.244 14.1062 105.244 14.1063C105.244 14.1063 105.244 14.1064 105.244 14.1065C105.244 14.1067 105.244 14.1071 105.244 14.1075C105.244 14.1083 105.244 14.1096 105.244 14.1113C105.244 14.1147 105.244 14.1198 105.244 14.1265C105.244 14.1401 105.244 14.1604 105.244 14.1873C105.244 14.2412 105.244 14.3217 105.245 14.4282C105.245 14.6412 105.246 14.9581 105.247 15.3738C105.249 16.2052 105.252 17.4318 105.256 19.0126L107.256 19.0077Z" fill="#E6E6E6"/>
</svg>
