<svg width="37" height="71" viewBox="0 0 37 71" fill="none" xmlns="http://www.w3.org/2000/svg">
<path fill-rule="evenodd" clip-rule="evenodd" d="M14.1862 35.1L24.1762 25.1C24.5758 24.9 24.9754 24.9 25.1752 25.1L35.1652 35.1C35.365 35.3 35.365 35.7 35.1652 35.9L25.1752 45.9C24.9754 46.3 24.5758 46.3 24.1762 45.9L14.1862 35.9C13.9864 35.7 13.9864 35.3 14.1862 35.1ZM12.7876 34.3C12.7876 34.7 13.1872 34.7 13.387 34.5L23.5768 24.3C23.7766 24.1 23.7766 23.7 23.5768 23.5L1.79856 1.7C1.39896 1.3 0.799564 1.5 1.19916 2.3L12.7876 34.3ZM12.7876 36.7C12.7876 36.3 13.1872 36.3 13.387 36.5L23.5768 46.7C23.7766 46.9 23.7766 47.3 23.5768 47.5L1.79856 69.3C1.39896 69.7 0.799564 69.5 1.19916 68.7L12.7876 36.7ZM30.1702 33.3H30.7696V34.7H30.1702V35.9H29.5708V36.5H28.9714V36.9H29.5708V38.3H28.7716V37.1H28.1722V36.5H27.7726H27.373V37.1H26.7736V38.3H25.9744V36.9H26.5738V36.5H25.9744V35.9H25.375V34.7H24.7756V33.3H25.375V32.7H26.374V33.7H25.7746V34.5H25.9744V33.9H26.5738V33.5H27.7726H28.9714V33.9H29.5708V34.5H29.7706V33.7H29.1712V32.7H30.1702V33.3ZM27.373 35.5H26.5738V34.7H27.373V35.5ZM28.1722 35.5H28.9714V34.7H28.1722V35.5Z" fill="white"/>
</svg>
