<svg width="139" height="35" viewBox="0 0 139 35" fill="none" xmlns="http://www.w3.org/2000/svg">
<path fill-rule="evenodd" clip-rule="evenodd" d="M1.92188 33.4236H55.544L55.2322 29.3245H1.92188V33.4236ZM76.7434 3.78401C76.4317 6.30653 77.6787 6.30653 79.2375 5.6759C80.1727 4.09932 79.2375 2.83806 77.3669 3.15338L76.7434 3.78401ZM76.7434 22.3876H79.5492V9.14437L76.7434 8.82905V22.3876ZM42.762 17.3426C42.1385 17.0273 40.5797 16.7119 39.3326 16.0813C35.9033 13.5588 37.1504 9.14437 40.5797 7.88311C41.5149 7.56779 42.1385 7.56779 43.0737 6.93716C40.8914 6.30653 39.3326 5.6759 37.1504 6.93716C31.227 10.0903 34.0328 20.4957 42.762 17.3426ZM4.10417 22.3876L7.22173 22.0723V1.89212L4.10417 2.20743V22.3876ZM122.26 19.2345C115.089 23.3336 111.66 13.8741 116.648 11.3516C119.142 10.4056 120.078 11.6669 121.948 12.2975C122.26 9.775 122.572 9.14437 120.389 8.82905C110.725 6.93716 109.478 18.2885 114.466 21.4417C117.272 23.3336 119.766 22.3876 122.26 22.0723V19.2345ZM73.9376 19.2345C73.9376 19.2345 65.8319 22.3876 65.8319 15.766C65.8319 8.19842 73.6259 12.2975 73.6259 12.2975V9.775C71.7553 8.19842 68.326 8.19842 66.1437 9.45969C59.5968 13.5588 63.6496 26.1714 73.9376 21.757V19.2345ZM100.125 22.3876C101.372 18.2885 97.9429 11.3516 102.931 10.7209C107.296 10.4056 106.049 16.0813 106.049 22.3876L108.854 22.0723C108.854 19.5498 109.166 12.9282 108.231 11.0363C106.672 7.88311 103.243 8.19842 100.437 10.0903C99.8134 8.82905 101.372 8.82905 97.6311 8.82905V22.3876H100.125ZM94.5135 18.6038C92.643 19.2345 91.7077 20.4957 88.5902 19.8651C86.7196 19.5498 85.7844 18.2885 85.4726 15.766H94.8253C95.137 6.62185 84.8491 6.62185 82.9785 12.9282C80.7962 21.1264 88.9019 25.2255 94.5135 21.1264V18.6038ZM85.4726 14.1894H92.0195C92.0195 11.9822 91.0842 11.0363 88.5902 11.0363C86.7196 11.0363 85.7844 12.2975 85.4726 14.1894ZM134.107 14.1894H127.56C128.183 10.0903 133.795 9.775 134.107 14.1894ZM136.601 18.6038C135.977 18.9191 127.871 23.0182 127.56 15.766H136.912C136.912 6.30653 126.001 6.93716 125.066 13.8741C123.819 19.8651 127.871 23.6489 133.795 22.3876C136.601 21.757 136.601 21.4417 136.601 18.6038ZM16.5744 4.72996L16.8862 22.3876H19.692V4.72996H26.8624V1.89212H9.71579V4.72996H16.5744ZM49.6206 17.0273C49.3089 19.8651 48.9971 20.811 51.4911 21.757C58.6615 24.5948 63.0261 18.9191 59.9086 13.8741C58.3498 11.0363 53.9852 9.775 52.7382 7.88311C51.4911 5.99122 53.0499 4.72996 54.9205 4.72996C57.7263 4.41464 58.038 5.6759 60.2203 6.30653L59.9086 2.83806C57.4145 1.89212 53.3617 0.315541 50.5559 3.46869C44.3208 11.0363 60.5321 13.8741 57.7263 18.2885C56.791 19.8651 54.6087 19.8651 53.0499 19.2345C51.1794 18.6038 50.8676 17.6579 49.6206 17.0273ZM47.1266 17.3426C43.6972 18.6038 41.8267 20.811 36.8386 19.2345C29.98 17.0273 30.2917 6.93716 37.4621 5.04527C41.8267 3.78401 45.256 6.30653 46.8148 6.62185V3.78401C44.009 1.5768 38.0856 0.946172 34.6563 2.83806C26.2389 7.25248 27.4859 18.6038 34.9681 21.757C39.6444 23.6489 43.6972 22.0723 47.1266 20.4957V17.3426Z" fill="white"/>
</svg>
