<svg width="34" height="34" viewBox="0 0 34 34" fill="none" xmlns="http://www.w3.org/2000/svg">
<path d="M17 21.25C19.3472 21.25 21.25 19.3472 21.25 17C21.25 14.6528 19.3472 12.75 17 12.75C14.6528 12.75 12.75 14.6528 12.75 17C12.75 19.3472 14.6528 21.25 17 21.25Z" fill="white"/>
<path d="M32.5952 15.8445C30.8381 13.1272 28.5584 10.8189 26.003 9.16871C23.1761 7.34121 20.055 6.375 16.9778 6.375C14.1542 6.375 11.3777 7.18184 8.72546 8.77293C6.02074 10.3952 3.57035 12.7653 1.44203 15.8166C1.20176 16.1615 1.06943 16.57 1.06187 16.9902C1.0543 17.4104 1.17183 17.8234 1.39953 18.1767C3.15332 20.9213 5.41046 23.2329 7.92593 24.8605C10.7582 26.6953 13.8062 27.625 16.9778 27.625C20.0796 27.625 23.2073 26.6668 26.0223 24.8545C28.5763 23.2096 30.8514 20.8927 32.6018 18.1528C32.8217 17.8077 32.9379 17.4068 32.9367 16.9977C32.9356 16.5885 32.817 16.1883 32.5952 15.8445V15.8445ZM17.0003 23.375C15.7395 23.375 14.507 23.0011 13.4586 22.3006C12.4102 21.6001 11.5931 20.6045 11.1106 19.4396C10.6281 18.2747 10.5019 16.9929 10.7478 15.7563C10.9938 14.5197 11.601 13.3838 12.4925 12.4922C13.3841 11.6006 14.52 10.9935 15.7566 10.7475C16.9933 10.5015 18.2751 10.6278 19.44 11.1103C20.6048 11.5928 21.6005 12.4099 22.301 13.4582C23.0015 14.5066 23.3753 15.7391 23.3753 17C23.3734 18.6902 22.7011 20.3105 21.506 21.5057C20.3109 22.7008 18.6905 23.3731 17.0003 23.375V23.375Z" fill="white"/>
</svg>
